
        <svg xmlns="http://www.w3.org/2000/svg" xmlns:xlink="http://www.w3.org/1999/xlink" version="1.1" width="2418.4431415835516" 
        height="3184.0490797546013" viewBox="0 0 2418.4431415835516 3184.0490797546013">
			<rect fill="#222831" width="2418.4431415835516" height="3184.0490797546013"/>
			<g transform="scale(9.202453987730062) translate(10, 10)">
				<defs id="SvgjsDefs1027"><linearGradient id="SvgjsLinearGradient1036"><stop id="SvgjsStop1037" stop-color="#147d6c" offset="0"></stop><stop id="SvgjsStop1038" stop-color="#1effff" offset="1"></stop></linearGradient><linearGradient id="SvgjsLinearGradient1039"><stop id="SvgjsStop1040" stop-color="#147d6c" offset="0"></stop><stop id="SvgjsStop1041" stop-color="#1effff" offset="1"></stop></linearGradient><linearGradient id="SvgjsLinearGradient1042"><stop id="SvgjsStop1043" stop-color="#147d6c" offset="0"></stop><stop id="SvgjsStop1044" stop-color="#1effff" offset="1"></stop></linearGradient><linearGradient id="SvgjsLinearGradient1045"><stop id="SvgjsStop1046" stop-color="#147d6c" offset="0"></stop><stop id="SvgjsStop1047" stop-color="#1effff" offset="1"></stop></linearGradient></defs><g id="SvgjsG1028" featureKey="rootContainer" transform="matrix(1,0,0,1,0,0)" fill="url(#SvgjsLinearGradient1036)"><path xmlns="http://www.w3.org/2000/svg" fill-rule="evenodd" d="M5,65 L121.5,0 L238, 65 L121.5, 10 z M5,246 L121.5,326 L238,241 L121.5, 316 z"></path></g><g id="SvgjsG1029" featureKey="symbolFeature-0" transform="matrix(1.0000777410963766,0,0,1.0000777410963766,71.53557499756477,84.490572376664)" fill="url(#SvgjsLinearGradient1039)"><path xmlns="http://www.w3.org/2000/svg" fill-rule="evenodd" clip-rule="evenodd" d="M50.459,95.503c-2.519,0-4.975-0.259-7.383-0.655l2.064-5.143  c1.744,0.236,3.511,0.399,5.319,0.399c2.501,0,4.94-0.261,7.313-0.703l-5.998-6.497h-8.514h-1.8h-1.8v-5.398h-5.899  c-0.623,1.07-1.771,1.8-3.099,1.8c-1.988,0-3.601-1.612-3.601-3.601s1.612-3.6,3.601-3.6c1.329,0,2.477,0.728,3.099,1.8h5.899v-1.8  v-3.601h3.6H61.26v0.77l4.416,4.784c0.315-0.09,0.641-0.153,0.983-0.153c1.988,0,3.6,1.612,3.6,3.601c0,1.987-1.611,3.598-3.6,3.598  s-3.599-1.61-3.599-3.598c0-0.296,0.044-0.579,0.11-0.854l-4.197-4.547H43.261v7.2H54.06v0.768l7.725,8.366  c6.576-1.96,12.414-5.601,17.071-10.395l-5.483-5.939H72.06V55.081l-5.435-5.883c-1.503,1.309-3.101,2.702-4.651,4.053  c-0.299,0.263-0.893,0.779-0.893,0.779l-1.621,0.024v0.051h-7.699c-0.623,1.072-1.771,1.801-3.1,1.801c-1.988,0-3.6-1.612-3.6-3.601  s1.612-3.599,3.6-3.599c1.329,0,2.477,0.728,3.1,1.8h7.699v0.393l10.799-9.623V27.107h-7.198v7.7  c1.07,0.623,1.798,1.771,1.798,3.099c0,1.988-1.61,3.601-3.599,3.601c-1.987,0-3.6-1.612-3.6-3.601c0-1.329,0.728-2.477,1.8-3.099  v-7.7v-1.8v-1.8h10.799v-7.183c-1.426-0.825-2.89-1.593-4.421-2.238c-0.573,0.264-1.206,0.422-1.879,0.422  c-2.484,0-4.499-2.015-4.499-4.5c0-2.484,2.015-4.499,4.499-4.499c2.243,0,4.087,1.644,4.428,3.788  c15.918,6.93,27.07,22.741,27.07,41.209C95.457,75.357,75.312,95.503,50.459,95.503z M81.058,52.306  c-1.988,0-3.599-1.61-3.599-3.599c0-1.329,0.729-2.477,1.799-3.101V30.708h1.8h1.801h1.87c-2.753-4.731-6.471-8.829-10.869-12.054  v26.453h-2.542c-0.584,0.508-1.25,1.09-1.978,1.723l6.525,7.069l-0.271,0.207h0.064v5.4h2.3c0.622-1.072,1.77-1.8,3.099-1.8  c1.988,0,3.601,1.612,3.601,3.601c0,1.987-1.612,3.6-3.601,3.6c-1.329,0-2.477-0.729-3.099-1.8h-2.3v6.168l5.598,6.063  c5.489-6.791,8.802-15.415,8.802-24.831c0-5.783-1.266-11.257-3.498-16.199h-3.702v11.298c1.072,0.625,1.8,1.772,1.8,3.101  C84.658,50.695,83.046,52.306,81.058,52.306z M50.459,10.908c-1.214,0-2.412,0.076-3.598,0.183v11.386l4.416,4.784  c0.314-0.09,0.64-0.153,0.982-0.153c1.988,0,3.601,1.612,3.601,3.601c0,1.988-1.612,3.6-3.601,3.6s-3.599-1.612-3.599-3.6  c0-0.295,0.044-0.579,0.111-0.853l-2.535-2.748h-1.918l-6.35,5.536l4.86,5.263h0.431v0.468l0.018,0.02l-0.018,0.016v22.897H61.76  c0.622-1.073,1.77-1.801,3.099-1.801c1.988,0,3.601,1.612,3.601,3.601s-1.612,3.599-3.601,3.599c-1.329,0-2.477-0.729-3.099-1.799  H43.261h-1.8h-1.8V39.782L23.152,21.899c-1,0.953-1.942,1.963-2.839,3.015L35.63,41.507h0.431v0.467l0.018,0.02l-0.018,0.016v21.097  v3.599h-3.599h-9h-1.798h-1.8v-8.999h-8.327c2.744,14.895,13.823,26.857,28.229,30.896l-2.025,5.049  C19.088,88.158,5.464,70.936,5.464,50.507c0-24.852,20.146-44.997,44.996-44.997c2.447,0,4.831,0.248,7.172,0.624l-2.062,5.142  C53.893,11.06,52.196,10.908,50.459,10.908z M18.068,27.79c-4.534,6.425-7.206,14.251-7.206,22.717c0,1.214,0.063,2.412,0.171,3.599  h12.428v1.801v1.8v5.4h9V43.382l-5.627-6.095l-5.231,7.245c0.031,0.188,0.06,0.378,0.06,0.575c0,1.988-1.612,3.6-3.6,3.6  s-3.6-1.612-3.6-3.6s1.612-3.6,3.6-3.6c0.401,0,0.779,0.081,1.139,0.202l5.142-7.12L18.068,27.79z M43.261,11.594  c-6.497,1.195-12.418,3.998-17.389,7.942l9.656,10.461l7.733-6.742V11.594z"></path></g><g id="SvgjsG1030" featureKey="nameLeftFeature-0" transform="matrix(2.4064167993533885,0,0,2.4064167993533885,-0.17478383278725498,187.96791829817096)" fill="url(#SvgjsLinearGradient1042)"><path d="M14.1 5.32 q0.22 0.3 0.08 0.66 l-5.48 13.54 q-0.08 0.2 -0.26 0.32 t-0.4 0.12 l-1.76 0 q-0.22 0 -0.4 -0.12 t-0.26 -0.32 l-5.48 -13.54 q-0.16 -0.34 0.06 -0.66 t0.58 -0.32 l6.68 0 q0.28 0 0.49 0.21 t0.21 0.51 l0 1.46 q0 0.3 -0.21 0.51 t-0.49 0.21 l-3.36 0 l3.06 7.7 l4.02 -10.16 q0.08 -0.2 0.26 -0.32 t0.4 -0.12 l1.68 0 q0.18 0 0.34 0.09 t0.24 0.23 z M26.5 16.96 q0.3 0 0.5 0.21 t0.2 0.51 l0 1.46 q0 0.28 -0.2 0.49 t-0.5 0.21 l-9.88 0 q-0.28 0 -0.49 -0.21 t-0.21 -0.49 l0 -1.46 q0 -0.3 0.21 -0.51 t0.49 -0.21 l9.88 0 z M16.62 13.86 q-0.28 0 -0.49 -0.21 t-0.21 -0.49 l0 -1.5 q0 -0.28 0.21 -0.49 t0.49 -0.21 l8.98 0 q0.3 0 0.51 0.21 t0.21 0.49 l0 1.5 q0 0.28 -0.21 0.49 t-0.51 0.21 l-8.98 0 z M26.5 5 q0.3 0 0.5 0.21 t0.2 0.49 l0 1.46 q0 0.3 -0.2 0.51 t-0.5 0.21 l-9.88 0 q-0.28 0 -0.49 -0.21 t-0.21 -0.51 l0 -1.46 q0 -0.28 0.21 -0.49 t0.49 -0.21 l9.88 0 z M31.84 5 q0.28 0 0.49 0.21 t0.21 0.49 l0 13.4 q0 0.28 -0.21 0.49 t-0.49 0.21 l-1.52 0 q-0.28 0 -0.49 -0.21 t-0.21 -0.49 l0 -13.4 q0 -0.28 0.21 -0.49 t0.49 -0.21 l1.52 0 z M39.14 16.94 q0.3 0 0.5 0.21 t0.2 0.49 l0 1.46 q0 0.28 -0.2 0.49 t-0.5 0.21 l-4.66 0 q-0.3 0 -0.5 -0.21 t-0.2 -0.49 l0 -1.46 q0 -0.28 0.2 -0.49 t0.5 -0.21 l4.66 0 z"></path></g><g id="SvgjsG1031" featureKey="nameRightFeature-0" transform="matrix(2.625510270227261,0,0,2.625510270227261,103.8747836489708,183.3114931787307)" fill="url(#SvgjsLinearGradient1045)"><path d="M18.576 6.4239999999999995 c0.11864 0 0.23746 0.11897 0.13576 0.30558 l-6.3053 13.152 c-0.050847 0.10169 -0.13559 0.16933 -0.25424 0.16933 l-0.15238 0 c-0.10186 0 -0.20356 -0.067631 -0.23746 -0.16933 l-2.1695 -4.5593 l-2.1695 4.5763 c-0.050847 0.10153 -0.13559 0.16933 -0.25424 0.16933 l-0.15254 0 c-0.10169 0 -0.20339 -0.067797 -0.25424 -0.16933 l-6.3051 -13.169 c-0.084746 -0.16966 0.033898 -0.28831 0.15254 -0.28831 l1.1356 0 c0.15254 0 0.18644 0.10169 0.27119 0.27119 l5.0847 10.898 l1.7627 -3.8305 l-3.3559 -7.0678 c-0.084746 -0.16949 0.033898 -0.28814 0.15271 -0.28814 l1.1525 0 c0.13559 0 0.18644 0.10186 0.25407 0.27119 l2.5254 5.4915 l2.5085 -5.4746 c0.084746 -0.16949 0.13559 -0.27119 0.27119 -0.27119 l1.1525 0 c0.11864 0 0.22034 0.11864 0.13559 0.30508 l-3.339 7.0339 l1.7627 3.8136 l5.0847 -10.898 c0.067797 -0.16933 0.11864 -0.27119 0.25424 -0.27119 l1.1525 0 z M30.20359322033898 19.77983 c0.067797 0.13559 0.034229 0.22017 -0.11831 0.22017 l-1.0339 0 c-0.11864 0 -0.18644 -0.050847 -0.23729 -0.15254 l-1.1864 -2.5254 l-8.1864 0 l-1.1864 2.5254 c-0.050847 0.10169 -0.11848 0.15254 -0.22034 0.15254 l-1.0678 0 c-0.11864 0 -0.18644 -0.08458 -0.11864 -0.22017 l6.3558 -13.271 c0.067797 -0.11864 0.11864 -0.15254 0.20322 -0.15254 l0.23745 0 c0.084746 0 0.15254 0.033898 0.20339 0.15254 z M20.01709322033898 16.1019 l7.0339 0 l-3.5254 -7.4576 z M41.76225423728813 19.76288 c0.084746 0.13559 0.033732 0.23712 -0.11881 0.23712 l-0.88136 0 c-0.27119 0 -0.45763 -0.22017 -0.55932 -0.37271 l-3 -4.2542 l-0.050847 0 l-3.8814 0 l0 4.3898 c0 0.15254 -0.067797 0.23712 -0.23729 0.23712 l-0.88136 0 c-0.15254 0 -0.22034 -0.08458 -0.22034 -0.23712 l0 -13.102 c0 -0.15254 0.067797 -0.22034 0.22034 -0.22034 l5 0 c3.1695 0 4.6273 2.4576 4.6273 4.4746 c0 1.7288 -1.0508 3.7288 -3.2712 4.3051 z M33.27105423728813 7.728999999999999 l0.00016552 6.3727 l3.7797 0 c2.3051 0 3.4066 -1.6102 3.4066 -3.2203 c0 -1.5932 -1.1186 -3.1524 -3.4068 -3.1524 l-3.7797 0 z M52.67776440677966 7.728999999999999 l-7.3556 0.00049656 l0 4.9659 l4.5424 0 c0.15254 0 0.23729 0.067797 0.23729 0.23729 l0 0.81339 c0 0.15254 -0.084746 0.22034 -0.23729 0.22034 l-4.5424 0 l0 4.7458 l7.3559 0 c0.15254 0 0.23712 0.084746 0.23712 0.23712 l0 0.81356 c0 0.16949 -0.067797 0.23712 -0.23729 0.23712 l-8.4746 0 c-0.15254 0 -0.22034 -0.08458 -0.22034 -0.22017 l0 -13.119 c0 -0.15254 0.084746 -0.22034 0.22034 -0.22034 l8.4746 0 c0.15254 0 0.23712 0.084746 0.23712 0.22034 l0 0.84746 c0 0.13559 -0.067797 0.22034 -0.23729 0.22034 z"></path></g>
			</g>
		</svg>
	