<svg xmlns:xlink="http://www.w3.org/1999/xlink" viewBox="0 0 608.09 608.09" xmlns="http://www.w3.org/2000/svg" id="Layer_2"><defs><style>.cls-1{fill:#bdabfa;}.cls-2{fill:#3f3de0;}</style></defs><g id="Layer_1-2"><circle r="304.04" cy="304.04" cx="304.04" class="cls-1"></circle><g><path d="M292.86,116.65c7.23,0,14.45,0,21.68,0,1.02,.19,2.04,.49,3.07,.57,27.14,2.03,52.51,9.81,76.04,23.45,2.09,1.21,3.41,.87,5.3-.26,17.41-10.44,39.39-7.69,53.69,6.6,14.24,14.23,17.06,35.95,6.73,53.27-1.4,2.34-1.39,3.92-.04,6.23,10.52,18.05,17.55,37.39,20.99,58,1.09,6.51,1.83,13.08,2.73,19.63v21.63c-.2,1.12-.51,2.23-.6,3.36-2.06,26.71-9.71,51.72-23.11,74.94-1.32,2.29-1.4,3.87,0,6.23,10.35,17.31,7.54,39.01-6.69,53.27-14.17,14.21-36.02,17.06-53.36,6.79-2.3-1.36-3.86-1.41-6.24-.12-59.32,32.02-118.72,31.87-178.04,0-2.4-1.29-3.95-1.22-6.24,.13-17.36,10.27-39.23,7.41-53.36-6.81-14.32-14.4-17.05-36.24-6.52-53.57,1.31-2.15,1.18-3.57,0-5.6-10.56-18.16-17.69-37.58-21.13-58.3-1.08-6.51-1.83-13.07-2.72-19.6,0-7.44,0-14.89,0-22.33,.21-1.01,.53-2.02,.61-3.04,2.12-26.68,9.81-51.65,23.24-74.82,1.3-2.25,1.15-3.75-.14-5.91-10.33-17.23-7.58-39,6.59-53.25,14.16-14.24,35.98-17.19,53.29-6.96,2.6,1.54,4.33,1.39,6.84-.06,17.88-10.32,37.03-17.25,57.4-20.68,6.63-1.12,13.32-1.86,19.99-2.77Zm-126.12,256.42c18.43-7.77,35.58-6.08,50.04,7.75,15.25,14.59,17.4,32.32,9.39,51.47,46.46,27.75,110.15,27.37,155.76-.02-7.9-18.73-5.98-36.2,8.65-50.76,14.61-14.53,32.14-16.35,50.8-8.48,29.53-50.04,25.48-114.14-.21-155.4-21.41,7.23-36.94,5.06-50.14-8.08-14.87-14.79-17.07-32.26-9.11-51.27-46.34-27.75-110.08-27.39-155.76,.03,7.92,18.73,5.95,36.21-8.66,50.75-14.59,14.52-32.14,16.35-50.8,8.48-27.72,47.02-27.32,109.27,.03,155.52Zm231.71-195.26c-.1,12.72,10.22,23.2,22.91,23.26,12.59,.07,23.03-10.1,23.21-22.6,.18-12.73-10.05-23.29-22.73-23.43-12.75-.14-23.29,10.12-23.39,22.77Zm23.16,211.7c-12.72-.05-23.16,10.32-23.16,23,0,12.55,10.25,22.92,22.79,23.03,12.74,.12,23.25-10.16,23.34-22.83,.08-12.71-10.25-23.16-22.96-23.2Zm-211.97,23.09c.03-12.7-10.35-23.1-23.07-23.09-12.57,0-22.95,10.26-23.05,22.77-.11,12.72,10.21,23.2,22.9,23.27,12.73,.07,23.19-10.26,23.22-22.95Zm-23.17-257.57c-12.7,.04-23.04,10.49-22.96,23.21,.08,12.52,10.43,22.8,22.99,22.83,12.72,.03,23.14-10.34,23.13-23.04,0-12.69-10.43-23.04-23.17-23Z" class="cls-2"></path><path d="M364.88,279.16c5.23,.24,10.7-.89,14.11,3.83,1.41,1.95,2.47,4.61,2.53,6.98,.18,6.81-4.14,9.43-16.64,10.43v3.64c0,13.14,0,26.28,0,39.42,0,7.71-4.05,12.57-10.5,12.52-6.56-.05-11.28-5.84-10.5-12.19,.04-.34-.06-.69-.16-1.66-19.51-4.44-38.47-11.94-59.5-14.87,1.99,7.07,3.66,13.04,5.34,19,.69,2.46,1.45,4.9,2.09,7.37,1.55,6.02-1.47,11.46-7.22,13.12-5.45,1.57-11.03-1.45-12.81-7.3-2.84-9.33-5.54-18.7-8.04-28.12-.68-2.57-1.89-3.43-4.41-3.82-20.11-3.1-34.16-20.76-32.64-40.83,1.49-19.61,17.95-34.96,37.92-35.36,.35,0,.7-.04,1.05,0,19.25,1.77,37.68-2.1,55.85-7.96,6.52-2.1,13.21-3.72,19.84-5.45,1.96-.51,2.76-1.33,2.78-3.52,.05-6.52,4.6-11.07,10.58-10.97,5.97,.1,10.29,4.77,10.31,11.31,.04,13.49,.01,26.98,.01,40.46,0,1.24,0,2.49,0,3.95Zm-60.68-9.41v39.93c13.16,3.62,26.22,7.21,39.52,10.87v-61.68c-13.31,3.67-26.37,7.26-39.52,10.88Zm-21.26,2.52c-6.29,0-12.22-.08-18.13,.02-9.03,.14-16.35,6.77-17.32,15.53-.98,8.88,4.87,17.55,13.93,18.77,7.02,.94,14.28,.19,21.52,.19v-34.5Z" class="cls-2"></path></g></g></svg>