<svg xmlns:xlink="http://www.w3.org/1999/xlink" viewBox="0 0 608.09 608.09" xmlns="http://www.w3.org/2000/svg" id="Layer_2"><defs><style>.cls-1{fill:#3f3de0;}.cls-2{fill:#82b6ff;}</style></defs><g id="Layer_1-2"><g><circle r="304.04" cy="304.04" cx="304.04" class="cls-2"></circle><g><path d="M505.04,174.88c-2.29,2.97-4.31,6.22-6.93,8.87-12.67,12.85-25.59,25.45-38.21,38.35-3.72,3.8-7.9,5.58-13.08,6.05-18.48,1.7-36.95,3.53-55.4,5.51-1.65,.18-3.44,1.46-4.69,2.71-22.54,22.39-45.03,44.83-67.48,67.31-3.82,3.83-8.13,5.6-13.45,3.86-8-2.61-10.97-12.3-5.81-18.94,.85-1.1,1.89-2.05,2.88-3.04,22.21-22.18,44.46-44.32,66.58-66.59,1.44-1.45,2.52-3.79,2.74-5.83,1.99-18.29,3.8-36.6,5.53-54.92,.45-4.79,2.32-8.58,5.79-11.98,13.52-13.26,26.9-26.66,40.22-40.12,4.2-4.24,8.81-6.57,14.69-4.25,5.67,2.24,7.57,6.89,7.95,12.7,.85,13.04,2.03,26.07,2.97,39.1,.15,2.13,1.03,2.75,3.04,2.89,12.55,.92,25.08,2.25,37.65,2.82,7.1,.32,12.14,2.86,15.01,9.39v6.1Zm-39.59,7.18c-1.9-.17-2.86-.27-3.82-.35-8.23-.69-16.47-1.2-24.67-2.11-6.14-.68-9.93-4.51-10.69-10.58-.68-5.4-.95-10.86-1.41-16.29-.33-3.81-.68-7.62-1.09-12.24-7,7.02-13.41,13.32-19.64,19.81-1.2,1.25-2.14,3.15-2.34,4.85-1.11,9.31-1.96,18.66-2.89,27.99-.5,4.99-1,9.98-1.53,15.3,11.87-1.16,23.2-2.88,34.57-3.2,8.91-.25,15.24-3.78,20.73-10.36,3.68-4.42,8.12-8.2,12.79-12.84Z" class="cls-1"></path><path d="M309.73,431.18c-66.98-.71-124.18-50.21-133.51-116.17-9.89-69.96,35.81-135.37,105.41-150.49,21.21-4.61,42.44-4.01,63.41,1.82,5.79,1.61,9.12,6.06,9.18,11.65,.06,5.43-3.26,10.35-8.65,11.59-2.7,.62-5.81,.31-8.58-.29-44.47-9.65-82.34,1.98-111.98,36.43-45.15,52.49-28.74,134.98,32.61,167.32,65.58,34.56,145.16-2.8,160.11-75.27,3.3-16,2.85-32.01-.92-47.96-.74-3.12-1.18-6.61-.54-9.67,1.14-5.38,6.13-8.67,11.6-8.64,5.38,.03,10.01,3.39,11.58,8.8,3.55,12.28,4.95,24.84,4.82,37.61-.66,62.52-45.32,116.56-106.28,129.47-9.28,1.96-18.84,2.57-28.27,3.8Z" class="cls-1"></path><path d="M311.95,247.31c-26.58-.57-47.59,17.66-50.94,43.59-3.08,23.89,13.71,47.12,38.15,52.76,29.25,6.75,58.3-15.73,59.39-45.78,.11-3.13,1.03-6.59,2.65-9.24,2.66-4.36,8.33-5.75,13.2-4.16,5.15,1.68,8.56,6.2,8.47,11.84-.37,22.47-8.83,41.5-26.29,55.63-24.3,19.67-51.56,23.29-79.53,9.3-28.24-14.13-41.9-38.3-40.45-69.82,1.85-40.21,38.02-71.49,78.1-68.27,3.45,.28,7.23,1.71,10.01,3.75,4.12,3.03,4.94,8.5,2.9,13.14-2.07,4.72-5.77,7.32-10.99,7.49-1.77,.06-3.55-.17-4.67-.23Z" class="cls-1"></path></g></g></g></svg>