<svg xmlns:xlink="http://www.w3.org/1999/xlink" xmlns="http://www.w3.org/2000/svg" fill="none" viewBox="0 0 220 76" height="76" width="220">
<path fill="#9096A2" d="M185.139 21.6804C185.907 21.6804 186.547 21.627 187.059 21.5204C187.571 21.3924 187.977 21.2217 188.275 21.0084C188.574 20.795 188.787 20.5497 188.915 20.2724C189.043 19.9737 189.107 19.6537 189.107 19.3124C189.107 18.971 189.043 18.6617 188.915 18.3844C188.787 18.0857 188.574 17.8297 188.275 17.6164C187.977 17.403 187.571 17.243 187.059 17.1364C186.547 17.0084 185.907 16.9444 185.139 16.9444L179.603 16.9444V21.6804L185.139 21.6804ZM185.971 14.1924C186.995 14.1924 187.923 14.2884 188.755 14.4804C189.587 14.651 190.302 14.9391 190.899 15.3444C191.497 15.7284 191.955 16.2404 192.275 16.8804C192.595 17.499 192.755 18.267 192.755 19.1844C192.755 20.5924 192.339 21.6697 191.507 22.4164C190.675 23.163 189.555 23.6644 188.147 23.9204L192.403 30.0004C192.553 30.2137 192.723 30.3417 192.915 30.3844C193.129 30.4271 193.321 30.4484 193.491 30.4484V31.0244H187.507V30.4484C187.699 30.4484 187.859 30.4164 187.987 30.3524C188.137 30.2884 188.211 30.2031 188.211 30.0964C188.211 29.9897 188.169 29.8724 188.083 29.7444C187.998 29.595 187.87 29.403 187.699 29.1684L184.179 24.1764H179.603V29.8724C179.603 30.0644 179.667 30.2137 179.795 30.3204C179.945 30.4057 180.201 30.4484 180.563 30.4484V31.0244H175.027V30.4484C175.646 30.4484 175.955 30.2564 175.955 29.8724V15.3444C175.955 14.9604 175.646 14.7684 175.027 14.7684V14.1924L185.971 14.1924Z"></path>
<path fill="#9096A2" d="M160.008 16.944C159.197 16.944 158.387 17.072 157.576 17.328C156.765 17.584 156.029 17.9573 155.368 18.448C154.728 18.9173 154.205 19.504 153.8 20.208C153.395 20.912 153.192 21.712 153.192 22.608C153.192 23.504 153.395 24.304 153.8 25.008C154.205 25.712 154.728 26.3093 155.368 26.8C156.029 27.2693 156.765 27.632 157.576 27.888C158.387 28.144 159.197 28.272 160.008 28.272C160.819 28.272 161.629 28.144 162.44 27.888C163.251 27.632 163.976 27.2693 164.616 26.8C165.277 26.3093 165.811 25.712 166.216 25.008C166.621 24.304 166.824 23.504 166.824 22.608C166.824 21.712 166.621 20.912 166.216 20.208C165.811 19.504 165.277 18.9173 164.616 18.448C163.976 17.9573 163.251 17.584 162.44 17.328C161.629 17.072 160.819 16.944 160.008 16.944ZM160.008 14C161.181 14 162.376 14.1813 163.592 14.544C164.808 14.8853 165.917 15.408 166.92 16.112C167.923 16.816 168.744 17.712 169.384 18.8C170.024 19.8667 170.344 21.136 170.344 22.608C170.344 24.08 170.024 25.36 169.384 26.448C168.744 27.5147 167.923 28.4 166.92 29.104C165.917 29.808 164.808 30.32 163.592 30.64C162.376 30.96 161.181 31.12 160.008 31.12C158.835 31.12 157.64 30.96 156.424 30.64C155.208 30.32 154.099 29.808 153.096 29.104C152.093 28.4 151.272 27.5147 150.632 26.448C149.992 25.36 149.672 24.08 149.672 22.608C149.672 21.136 149.992 19.8667 150.632 18.8C151.272 17.712 152.093 16.816 153.096 16.112C154.099 15.408 155.208 14.8853 156.424 14.544C157.64 14.1813 158.835 14 160.008 14Z"></path>
<path fill="#9096A2" d="M146.367 31.6324C146.367 31.3124 146.26 31.131 146.047 31.0884C145.855 31.0457 145.599 31.0244 145.279 31.0244L130.047 31.0244V30.4484C130.687 30.4484 131.007 30.2564 131.007 29.8724V15.3444C131.007 14.9604 130.687 14.7684 130.047 14.7684V14.1924L135.551 14.1924V14.7684C134.954 14.7684 134.655 14.9604 134.655 15.3444V28.0804L145.279 28.0804C145.599 28.0804 145.855 28.0057 146.047 27.8564C146.26 27.7071 146.367 27.5044 146.367 27.2484H146.943V31.6324H146.367Z"></path>
<path fill="#9096A2" d="M115.539 16.944C114.728 16.944 113.918 17.072 113.107 17.328C112.296 17.584 111.56 17.9573 110.899 18.448C110.259 18.9173 109.736 19.504 109.331 20.208C108.926 20.912 108.723 21.712 108.723 22.608C108.723 23.504 108.926 24.304 109.331 25.008C109.736 25.712 110.259 26.3093 110.899 26.8C111.56 27.2693 112.296 27.632 113.107 27.888C113.918 28.144 114.728 28.272 115.539 28.272C116.35 28.272 117.16 28.144 117.971 27.888C118.782 27.632 119.507 27.2693 120.147 26.8C120.808 26.3093 121.342 25.712 121.747 25.008C122.152 24.304 122.355 23.504 122.355 22.608C122.355 21.712 122.152 20.912 121.747 20.208C121.342 19.504 120.808 18.9173 120.147 18.448C119.507 17.9573 118.782 17.584 117.971 17.328C117.16 17.072 116.35 16.944 115.539 16.944ZM115.539 14C116.712 14 117.907 14.1813 119.123 14.544C120.339 14.8853 121.448 15.408 122.451 16.112C123.454 16.816 124.275 17.712 124.915 18.8C125.555 19.8667 125.875 21.136 125.875 22.608C125.875 24.08 125.555 25.36 124.915 26.448C124.275 27.5147 123.454 28.4 122.451 29.104C121.448 29.808 120.339 30.32 119.123 30.64C117.907 30.96 116.712 31.12 115.539 31.12C114.366 31.12 113.171 30.96 111.955 30.64C110.739 30.32 109.63 29.808 108.627 29.104C107.624 28.4 106.803 27.5147 106.163 26.448C105.523 25.36 105.203 24.08 105.203 22.608C105.203 21.136 105.523 19.8667 106.163 18.8C106.803 17.712 107.624 16.816 108.627 16.112C109.63 15.408 110.739 14.8853 111.955 14.544C113.171 14.1813 114.366 14 115.539 14Z"></path>
<path fill="#9096A2" d="M91.7112 28.2724C92.7139 28.2724 93.5885 28.1871 94.3352 28.0164C95.0819 27.8457 95.7005 27.5471 96.1912 27.1204C96.6819 26.6724 97.0445 26.0857 97.2792 25.3604C97.5352 24.6351 97.6632 23.7177 97.6632 22.6084C97.6632 21.499 97.5352 20.5817 97.2792 19.8564C97.0445 19.1311 96.6819 18.5551 96.1912 18.1284C95.7005 17.6804 95.0819 17.371 94.3352 17.2004C93.5885 17.0297 92.7139 16.9444 91.7112 16.9444L86.7512 16.9444V28.2724H91.7112ZM92.9912 14.1924C94.1645 14.1924 95.2525 14.363 96.2552 14.7044C97.2792 15.0457 98.1645 15.5684 98.9112 16.2724C99.6579 16.955 100.245 17.8297 100.671 18.8964C101.098 19.9417 101.311 21.179 101.311 22.6084C101.311 24.0377 101.098 25.2857 100.671 26.3524C100.245 27.3977 99.6579 28.2724 98.9112 28.9764C98.1645 29.659 97.2792 30.1711 96.2552 30.5124C95.2525 30.8537 94.1645 31.0244 92.9912 31.0244L82.3672 31.0244V30.4484C82.8579 30.4484 83.1032 30.2564 83.1032 29.8724V15.3444C83.1032 14.9604 82.8579 14.7684 82.3672 14.7684V14.1924L92.9912 14.1924Z"></path>
<path fill="#9096A2" d="M212.488 60.8728C212.488 61.2568 212.723 61.4488 213.192 61.4488V62.0248H208.264V61.4488C208.414 61.4488 208.542 61.4061 208.648 61.3208C208.776 61.2141 208.84 61.0648 208.84 60.8728V48.1368H203.56C203.368 48.1368 203.176 48.1901 202.984 48.2968C202.814 48.4035 202.728 48.6061 202.728 48.9048H202.152V44.4248H202.728C202.728 44.7235 202.814 44.9261 202.984 45.0328C203.176 45.1395 203.368 45.1928 203.56 45.1928L217.768 45.1928C217.96 45.1928 218.142 45.1395 218.312 45.0328C218.504 44.9261 218.6 44.7235 218.6 44.4248H219.176V48.9048H218.6C218.6 48.6061 218.504 48.4035 218.312 48.2968C218.142 48.1901 217.96 48.1368 217.768 48.1368L212.488 48.1368V60.8728Z"></path>
<path fill="#9096A2" d="M198.12 48.6488C198.12 48.4141 198.025 48.2435 197.833 48.1368C197.662 48.0088 197.353 47.9448 196.905 47.9448H186.536V51.9128H192.809C193.235 51.9128 193.566 51.8595 193.8 51.7528C194.035 51.6248 194.153 51.3155 194.153 50.8248H194.729V55.8168H194.153C194.153 55.3261 194.035 55.0168 193.8 54.8888C193.566 54.7395 193.235 54.6648 192.809 54.6648H186.536V59.0808H197.225C197.545 59.0808 197.801 59.0061 197.993 58.8568C198.206 58.7075 198.312 58.5048 198.312 58.2488H198.889V62.6328H198.312C198.312 62.3128 198.206 62.1315 197.993 62.0888C197.801 62.0461 197.545 62.0248 197.225 62.0248H182.312V61.4488C182.462 61.4488 182.59 61.4061 182.697 61.3208C182.825 61.2141 182.889 61.0648 182.889 60.8728V46.3448C182.889 46.1528 182.825 46.0141 182.697 45.9288C182.59 45.8221 182.462 45.7688 182.312 45.7688V45.1928H196.905C197.353 45.1928 197.662 45.1288 197.833 45.0008C198.025 44.8515 198.12 44.6595 198.12 44.4248H198.697V48.6488L198.12 48.6488Z"></path>
<path fill="#9096A2" d="M155.719 61.4484C155.889 61.4484 156.039 61.4057 156.167 61.3204C156.295 61.2137 156.359 61.0644 156.359 60.8724V46.2804C156.359 46.0884 156.295 45.9604 156.167 45.8964C156.039 45.811 155.889 45.7684 155.719 45.7684V45.1924H161.703V45.7684C161.596 45.7684 161.479 45.8004 161.351 45.8644C161.244 45.9284 161.191 46.0244 161.191 46.1524C161.191 46.259 161.233 46.3977 161.319 46.5684C161.404 46.739 161.5 46.9204 161.607 47.1124L166.183 55.4324L170.791 47.2084C170.94 46.931 171.047 46.7177 171.111 46.5684C171.196 46.3977 171.239 46.2484 171.239 46.1204C171.239 45.8857 171.1 45.7684 170.823 45.7684V45.1924H176.743V45.7684C176.572 45.7684 176.423 45.811 176.295 45.8964C176.167 45.9604 176.103 46.0884 176.103 46.2804V60.8724C176.103 61.0644 176.167 61.2137 176.295 61.3204C176.423 61.4057 176.572 61.4484 176.743 61.4484V62.0244H171.719V61.4484C172.295 61.4484 172.583 61.2564 172.583 60.8724V50.2484H172.519L166.087 62.0244H165.991L159.687 50.2164H159.623V60.8724C159.623 61.2564 159.921 61.4484 160.519 61.4484V62.0244H155.719V61.4484Z"></path>
<path fill="#9096A2" d="M144.298 55.4964L141.61 49.5444L138.602 55.4964H144.298ZM132.234 61.4484C132.512 61.4057 132.725 61.267 132.874 61.0324C133.045 60.7977 133.205 60.5311 133.354 60.2324L139.274 47.7844C139.424 47.507 139.552 47.2511 139.658 47.0164C139.786 46.7817 139.85 46.579 139.85 46.4084C139.85 46.195 139.776 46.0457 139.626 45.9604C139.477 45.875 139.317 45.811 139.146 45.7684V45.1924H144.554V45.7684C144.405 45.811 144.256 45.875 144.106 45.9604C143.957 46.0244 143.882 46.1737 143.882 46.4084C143.882 46.579 143.914 46.7497 143.978 46.9204C144.064 47.0911 144.181 47.315 144.33 47.5924L150.986 60.6164C151.093 60.851 151.232 61.0217 151.402 61.1284C151.594 61.2351 151.808 61.3417 152.042 61.4484V62.0244H146.41V61.4484C146.496 61.4484 146.602 61.4164 146.73 61.3524C146.858 61.2884 146.922 61.1924 146.922 61.0644C146.922 60.8511 146.837 60.5737 146.666 60.2324L145.45 57.8644H137.642L136.49 60.1364C136.277 60.5844 136.17 60.9044 136.17 61.0964C136.17 61.3311 136.373 61.4484 136.778 61.4484V62.0244H132.234V61.4484Z"></path>
<path fill="#9096A2" d="M123.582 60.8728C123.582 61.2568 123.817 61.4488 124.286 61.4488V62.0248H119.358V61.4488C119.507 61.4488 119.635 61.4061 119.742 61.3208C119.87 61.2141 119.934 61.0648 119.934 60.8728V48.1368H114.654C114.462 48.1368 114.27 48.1901 114.078 48.2968C113.907 48.4035 113.822 48.6061 113.822 48.9048H113.246V44.4248H113.822C113.822 44.7235 113.907 44.9261 114.078 45.0328C114.27 45.1395 114.462 45.1928 114.654 45.1928L128.862 45.1928C129.054 45.1928 129.235 45.1395 129.406 45.0328C129.598 44.9261 129.694 44.7235 129.694 44.4248H130.27V48.9048H129.694C129.694 48.6061 129.598 48.4035 129.406 48.2968C129.235 48.1901 129.054 48.1368 128.862 48.1368L123.582 48.1368V60.8728Z"></path>
<path fill="#9096A2" d="M103.996 61.4484C104.551 61.4484 104.828 61.2564 104.828 60.8724V46.3444C104.828 45.9604 104.551 45.7684 103.996 45.7684V45.1924H109.308V45.7684C108.753 45.7684 108.476 45.9604 108.476 46.3444V60.8724C108.476 61.2564 108.753 61.4484 109.308 61.4484V62.0244H103.996V61.4484Z"></path>
<path fill="#9096A2" d="M83.9983 56.745L84.3183 56.905C84.3183 57.097 84.3609 57.2676 84.4463 57.417C84.5956 57.673 84.8836 57.929 85.3103 58.185C85.7583 58.4196 86.2596 58.633 86.8143 58.825C87.3903 59.017 87.9876 59.177 88.6063 59.305C89.2249 59.4116 89.7796 59.465 90.2703 59.465C90.6329 59.465 91.1023 59.4436 91.6783 59.401C92.2543 59.337 92.8196 59.2196 93.3743 59.049C93.9289 58.8783 94.4089 58.6436 94.8143 58.345C95.2196 58.0463 95.4223 57.6516 95.4223 57.161C95.4223 56.6703 95.2303 56.3076 94.8463 56.073C94.4836 55.8383 93.9929 55.6676 93.3743 55.561C92.7769 55.4543 92.0836 55.3903 91.2943 55.369C90.5263 55.3263 89.7369 55.273 88.9263 55.209C88.1156 55.145 87.3156 55.0383 86.5263 54.889C85.7583 54.7396 85.0649 54.4943 84.4463 54.153C83.8489 53.7903 83.3583 53.3103 82.9743 52.713C82.6116 52.0943 82.4303 51.2943 82.4303 50.313C82.4303 49.6516 82.5796 49.001 82.8783 48.361C83.1983 47.721 83.6783 47.1556 84.3183 46.665C84.9583 46.1743 85.7689 45.7796 86.7503 45.481C87.7316 45.161 88.8836 45.001 90.2063 45.001C91.3369 45.001 92.3183 45.0863 93.1503 45.257C93.9823 45.4276 94.6969 45.609 95.2943 45.801C95.9129 45.993 96.4249 46.1743 96.8303 46.345C97.2569 46.5156 97.6089 46.601 97.8863 46.601C98.1849 46.601 98.3983 46.537 98.5263 46.409L98.9103 46.665L96.7023 50.665L96.3823 50.537C96.3396 50.2383 96.2543 49.993 96.1263 49.801C95.9556 49.545 95.6676 49.2996 95.2623 49.065C94.8783 48.809 94.4196 48.585 93.8863 48.393C93.3529 48.201 92.7769 48.0516 92.1583 47.945C91.5396 47.817 90.9209 47.753 90.3023 47.753C89.8329 47.753 89.3423 47.7956 88.8303 47.881C88.3396 47.945 87.8916 48.0516 87.4863 48.201C87.0809 48.3503 86.7396 48.553 86.4623 48.809C86.2063 49.0436 86.0783 49.3423 86.0783 49.705C86.0783 50.217 86.2596 50.601 86.6223 50.857C87.0063 51.113 87.4969 51.305 88.0943 51.433C88.7129 51.561 89.4063 51.6463 90.1743 51.689C90.9636 51.7316 91.7636 51.785 92.5743 51.849C93.3849 51.913 94.1743 52.0303 94.9423 52.201C95.7316 52.3503 96.4249 52.6063 97.0223 52.969C97.6409 53.3103 98.1316 53.7796 98.4943 54.377C98.8783 54.9743 99.0703 55.753 99.0703 56.713C99.0703 57.8223 98.7716 58.729 98.1743 59.433C97.5983 60.137 96.8729 60.6916 95.9983 61.097C95.1236 61.5023 94.1743 61.7796 93.1503 61.929C92.1476 62.057 91.2089 62.121 90.3343 62.121C89.1183 62.121 88.0943 62.057 87.2623 61.929C86.4516 61.7796 85.7689 61.609 85.2143 61.417C84.6809 61.2036 84.2543 61.0223 83.9343 60.873C83.6143 60.7023 83.3369 60.617 83.1023 60.617C82.9529 60.617 82.8143 60.7023 82.6863 60.873L82.2383 60.617L83.9983 56.745Z"></path>
<path fill="#FFBE00" d="M20.351 50.6377L25.1558 44.3189C25.8262 43.4406 27.1671 43.4406 27.8251 44.3189L32.6299 50.6377C33.3128 51.5404 32.6672 52.8335 31.5125 52.8335H21.4684C20.3137 52.8335 19.6557 51.5404 20.351 50.6377Z"></path>
<path fill="#2516D9" d="M72.1781 50.6345L51.2663 23.1626C50.606 22.2974 49.2852 22.2974 48.6371 23.1626L41.5931 32.416C41.1773 32.9688 41.1773 33.7139 41.5931 34.2668L43.9289 37.3312C44.5525 38.1604 45.8122 38.1604 46.4481 37.3312L48.8939 34.1225C49.432 33.4135 50.5081 33.4135 51.034 34.1225L64.2047 51.4157C64.8651 52.2809 65.8923 52.7857 66.9929 52.7857H71.0897C72.227 52.7857 72.8752 51.5118 72.1904 50.6225L72.1781 50.6345Z"></path>
<path fill="#2516D9" d="M48.2216 50.6234L39.3671 38.9831L35.0802 33.3491L27.3371 23.1623C26.6776 22.2974 25.3586 22.2974 24.7113 23.1623L3.82679 50.6234C3.14285 51.5123 3.79015 52.7857 4.92597 52.7857H9.01742C10.1166 52.7857 11.1425 52.2811 11.802 51.4162L24.9555 34.1299C25.493 33.4332 26.5677 33.4332 27.0928 34.1299L30.7934 38.9831L35.0802 44.617L40.2464 51.4162C40.906 52.2811 41.9319 52.7857 43.031 52.7857H47.1225C48.2583 52.7857 48.8934 51.5123 48.2216 50.6234Z"></path>
</svg>