<svg xmlns:xlink="http://www.w3.org/1999/xlink" xmlns="http://www.w3.org/2000/svg" fill="none" viewBox="0 0 153 123" height="123" width="153">
<path fill="#9096A2" d="M152.766 106.999H148.158L140.694 94.0393H140.598C140.614 94.4393 140.63 94.8473 140.646 95.2633C140.662 95.6633 140.678 96.0713 140.694 96.4873C140.726 96.8873 140.75 97.2953 140.766 97.7113C140.782 98.1113 140.798 98.5193 140.814 98.9353V106.999H137.574V89.8633H142.158L149.598 102.703H149.67C149.654 102.303 149.638 101.911 149.622 101.527C149.606 101.127 149.59 100.735 149.574 100.351C149.574 99.9513 149.566 99.5593 149.55 99.1753C149.534 98.7753 149.518 98.3753 149.502 97.9753V89.8633H152.766V106.999Z"></path>
<path fill="#9096A2" d="M134.023 98.4076C134.023 99.7356 133.855 100.944 133.519 102.032C133.199 103.104 132.703 104.032 132.031 104.816C131.375 105.6 130.527 106.2 129.487 106.616C128.463 107.032 127.255 107.24 125.863 107.24C124.471 107.24 123.255 107.032 122.215 106.616C121.191 106.184 120.343 105.584 119.671 104.816C119.015 104.032 118.519 103.096 118.183 102.008C117.863 100.92 117.703 99.7116 117.703 98.3836C117.703 96.6076 117.991 95.0636 118.567 93.7516C119.159 92.4396 120.055 91.4236 121.255 90.7036C122.471 89.9676 124.015 89.5996 125.887 89.5996C127.743 89.5996 129.271 89.9676 130.471 90.7036C131.671 91.4236 132.559 92.4476 133.135 93.7756C133.727 95.0876 134.023 96.6316 134.023 98.4076ZM121.519 98.4076C121.519 99.6076 121.671 100.64 121.975 101.504C122.279 102.368 122.751 103.032 123.391 103.496C124.031 103.96 124.855 104.192 125.863 104.192C126.903 104.192 127.735 103.96 128.359 103.496C128.999 103.032 129.463 102.368 129.751 101.504C130.055 100.64 130.207 99.6076 130.207 98.4076C130.207 96.5996 129.871 95.1836 129.199 94.1596C128.527 93.1356 127.423 92.6236 125.887 92.6236C124.863 92.6236 124.031 92.8556 123.391 93.3196C122.751 93.7836 122.279 94.4476 121.975 95.3116C121.671 96.1756 121.519 97.2076 121.519 98.4076Z"></path>
<path fill="#9096A2" d="M115.55 106.999H107.75V104.935L109.838 103.975V92.8873L107.75 91.9273V89.8633H115.55V91.9273L113.462 92.8873V103.975L115.55 104.935V106.999Z"></path>
<path fill="#9096A2" d="M101.846 106.999H98.2224V92.8873H93.5664V89.8633H106.502V92.8873H101.846V106.999Z"></path>
<path fill="#9096A2" d="M90.8511 107L89.6031 102.92H83.3631L82.1151 107H78.2031L84.2511 89.792H88.6911L94.7631 107H90.8511ZM87.4911 95.888C87.4111 95.616 87.3071 95.272 87.1791 94.856C87.0511 94.44 86.9231 94.016 86.7951 93.584C86.6671 93.152 86.5631 92.776 86.4831 92.456C86.4031 92.776 86.2911 93.176 86.1471 93.656C86.0191 94.12 85.8911 94.568 85.7631 95C85.6511 95.416 85.5631 95.712 85.4991 95.888L84.2751 99.872H88.7391L87.4911 95.888Z"></path>
<path fill="#9096A2" d="M76.0318 106.999H71.4238L63.9598 94.0393H63.8638C63.8798 94.4393 63.8958 94.8473 63.9118 95.2633C63.9278 95.6633 63.9438 96.0713 63.9598 96.4873C63.9918 96.8873 64.0158 97.2953 64.0318 97.7113C64.0478 98.1113 64.0638 98.5193 64.0798 98.9353V106.999H60.8398L60.8398 89.8633H65.4238L72.8638 102.703H72.9358C72.9198 102.303 72.9038 101.911 72.8878 101.527C72.8718 101.127 72.8558 100.735 72.8398 100.351C72.8398 99.9513 72.8318 99.5593 72.8158 99.1753C72.7998 98.7753 72.7838 98.3753 72.7678 97.9753V89.8633H76.0318V106.999Z"></path>
<path fill="#9096A2" d="M57.2742 106.999H47.4102L47.4102 89.8633H57.2742V92.8393H51.0342V96.6073H56.8422V99.5833H51.0342V103.999H57.2742V106.999Z"></path>
<path fill="#9096A2" d="M36.5584 89.8633C38.1104 89.8633 39.3904 90.0553 40.3984 90.4393C41.4064 90.8073 42.1584 91.3753 42.6544 92.1433C43.1504 92.8953 43.3984 93.8473 43.3984 94.9993C43.3984 95.7833 43.2464 96.4713 42.9424 97.0633C42.6544 97.6393 42.2624 98.1353 41.7664 98.5513C41.2864 98.9513 40.7664 99.2793 40.2064 99.5353L45.2464 106.999H41.2144L37.1344 100.423H35.1904L35.1904 106.999H31.5664L31.5664 89.8633H36.5584ZM36.2944 92.8393H35.1904V97.4713H36.3664C37.1664 97.4713 37.8144 97.3833 38.3104 97.2073C38.8064 97.0313 39.1664 96.7673 39.3904 96.4153C39.6144 96.0473 39.7264 95.6073 39.7264 95.0953C39.7264 94.5513 39.5984 94.1193 39.3424 93.7993C39.1024 93.4633 38.7264 93.2233 38.2144 93.0793C37.7184 92.9193 37.0784 92.8393 36.2944 92.8393Z"></path>
<path fill="#9096A2" d="M28.0007 106.999H18.1367L18.1367 89.8633H28.0007V92.8393H21.7607V96.6073H27.5687V99.5833H21.7607V103.999H28.0007V106.999Z"></path>
<path fill="#9096A2" d="M7.272 97.376H14.064L14.064 106.256C13.168 106.56 12.232 106.8 11.256 106.976C10.296 107.152 9.2 107.24 7.968 107.24C6.272 107.24 4.824 106.904 3.624 106.232C2.44 105.56 1.536 104.568 0.912 103.256C0.304 101.944 0 100.328 0 98.408C0 96.616 0.344 95.064 1.032 93.752C1.736 92.44 2.752 91.424 4.08 90.704C5.408 89.984 7.032 89.624 8.952 89.624C9.864 89.624 10.76 89.72 11.64 89.912C12.52 90.104 13.32 90.36 14.04 90.68L12.84 93.584C12.312 93.312 11.712 93.088 11.04 92.912C10.368 92.736 9.664 92.648 8.928 92.648C7.872 92.648 6.952 92.888 6.168 93.368C5.4 93.848 4.8 94.528 4.368 95.408C3.952 96.272 3.744 97.296 3.744 98.48C3.744 99.6 3.896 100.592 4.2 101.456C4.504 102.32 4.984 103 5.64 103.496C6.296 103.976 7.152 104.216 8.208 104.216C8.56 104.216 8.864 104.208 9.12 104.192C9.392 104.16 9.64 104.128 9.864 104.096C10.088 104.048 10.304 104.008 10.512 103.976L10.512 100.4H7.272L7.272 97.376Z"></path>
<path fill="#9095A1" d="M116.158 118.325H112.957V121.129H116.357V121.999H111.969V114.146H116.357V115.017H112.957V117.466H116.158V118.325Z"></path>
<path fill="#9095A1" d="M110.449 114.716L109.525 114.936V121.22L110.449 121.43V121.999H107.613V121.43L108.537 121.22V114.936L107.613 114.716V114.146H110.449V114.716Z"></path>
<path fill="#9095A1" d="M101.172 114.146H107.059V115.017H104.615V121.999H103.626V115.017H101.172V114.146Z"></path>
<path fill="#9095A1" d="M100.775 119.899C100.775 120.594 100.521 121.137 100.013 121.527C99.5078 121.914 98.8257 122.107 97.9663 122.107C97.5295 122.107 97.123 122.075 96.7471 122.01C96.3747 121.946 96.0632 121.854 95.8125 121.736V120.791C96.0775 120.906 96.4051 121.011 96.7954 121.108C97.1893 121.205 97.5957 121.253 98.0146 121.253C98.5911 121.253 99.0298 121.14 99.3306 120.915C99.6313 120.685 99.7817 120.376 99.7817 119.985C99.7817 119.728 99.728 119.511 99.6206 119.335C99.5096 119.156 99.318 118.995 99.0459 118.852C98.7738 118.705 98.4032 118.544 97.9341 118.369C97.2609 118.129 96.7542 117.833 96.4141 117.482C96.0775 117.128 95.9092 116.646 95.9092 116.038C95.9092 115.626 96.0166 115.27 96.2314 114.969C96.6719 114.346 97.4006 114.034 98.4175 114.034C98.8436 114.034 99.2357 114.075 99.5938 114.158C99.9554 114.236 100.287 114.342 100.587 114.475L100.276 115.323C100.007 115.205 99.7101 115.107 99.3843 115.028C99.062 114.945 98.7326 114.904 98.396 114.904C97.9054 114.904 97.5348 115.01 97.2842 115.221C97.0371 115.429 96.9136 115.705 96.9136 116.048C96.9136 116.313 96.9691 116.534 97.0801 116.709C97.1875 116.884 97.3665 117.044 97.6172 117.187C97.8678 117.33 98.2044 117.479 98.627 117.633C99.0853 117.798 99.4756 117.978 99.7979 118.175C100.117 118.372 100.358 118.607 100.523 118.879C100.691 119.147 100.775 119.488 100.775 119.899Z"></path>
<path fill="#9095A1" d="M94.3926 118.325H91.1914V121.129H94.5913V121.999H90.2031V114.146H94.5913V115.017H91.1914V117.466H94.3926V118.325Z"></path>
<path fill="#9095A1" d="M85.4258 114.146V121.118H88.8579V121.999H84.4375V114.146H85.4258Z"></path>
<path fill="#9095A1" d="M82.6963 118.062C82.6963 118.868 82.5584 119.577 82.2827 120.189C82.007 120.795 81.5988 121.265 81.0581 121.602C80.521 121.939 79.8604 122.107 79.0762 122.107C78.2633 122.107 77.5866 121.939 77.0459 121.602C76.5052 121.265 76.1024 120.793 75.8374 120.184C75.576 119.575 75.4453 118.865 75.4453 118.052C75.4453 117.26 75.5778 116.559 75.8428 115.946C76.1077 115.341 76.5088 114.87 77.0459 114.534C77.5866 114.194 78.2669 114.023 79.0869 114.023C79.8711 114.023 80.5317 114.19 81.0688 114.523C81.6024 114.86 82.007 115.33 82.2827 115.936C82.5584 116.537 82.6963 117.246 82.6963 118.062ZM76.4927 118.062C76.4927 119.051 76.7004 119.83 77.1157 120.399C77.5347 120.968 78.1882 121.253 79.0762 121.253C79.9642 121.253 80.6141 120.968 81.0259 120.399C81.4412 119.83 81.6489 119.051 81.6489 118.062C81.6489 117.071 81.443 116.295 81.0312 115.737C80.623 115.175 79.9749 114.894 79.0869 114.894C78.1917 114.894 77.5347 115.175 77.1157 115.737C76.7004 116.295 76.4927 117.071 76.4927 118.062Z"></path>
<path fill="#9095A1" d="M72.8027 115.124H72.7598L70.144 121.999H69.3276L66.7441 115.113H66.7012C66.7227 115.339 66.7406 115.645 66.7549 116.032C66.7692 116.415 66.7764 116.816 66.7764 117.235V121.999H65.8633V114.146H67.3242L69.7466 120.581H69.7896L72.2549 114.146H73.7051V121.999H72.7275V117.17C72.7275 116.787 72.7365 116.41 72.7544 116.037C72.7723 115.665 72.7884 115.36 72.8027 115.124Z"></path>
<path fill="#9095A1" d="M64.2832 119.899C64.2832 120.594 64.029 121.137 63.5205 121.527C63.0156 121.914 62.3335 122.107 61.4741 122.107C61.0373 122.107 60.6309 122.075 60.2549 122.01C59.8825 121.946 59.571 121.854 59.3203 121.736V120.791C59.5853 120.906 59.9129 121.011 60.3032 121.108C60.6971 121.205 61.1035 121.253 61.5225 121.253C62.099 121.253 62.5376 121.14 62.8384 120.915C63.1392 120.685 63.2896 120.376 63.2896 119.985C63.2896 119.728 63.2358 119.511 63.1284 119.335C63.0174 119.156 62.8258 118.995 62.5537 118.852C62.2816 118.705 61.911 118.544 61.4419 118.369C60.7687 118.129 60.262 117.833 59.9219 117.482C59.5853 117.128 59.417 116.646 59.417 116.038C59.417 115.626 59.5244 115.27 59.7393 114.969C60.1797 114.346 60.9084 114.034 61.9253 114.034C62.3514 114.034 62.7435 114.075 63.1016 114.158C63.4632 114.236 63.7944 114.342 64.0952 114.475L63.7837 115.323C63.5151 115.205 63.2179 115.107 62.8921 115.028C62.5698 114.945 62.2404 114.904 61.9038 114.904C61.4132 114.904 61.0426 115.01 60.792 115.221C60.5449 115.429 60.4214 115.705 60.4214 116.048C60.4214 116.313 60.4769 116.534 60.5879 116.709C60.6953 116.884 60.8743 117.044 61.125 117.187C61.3757 117.33 61.7122 117.479 62.1348 117.633C62.5931 117.798 62.9834 117.978 63.3057 118.175C63.6243 118.372 63.866 118.607 64.0308 118.879C64.1991 119.147 64.2832 119.488 64.2832 119.899Z"></path>
<path fill="#9095A1" d="M58.3047 114.716L57.3809 114.936V121.22L58.3047 121.43V121.999H55.4688V121.43L56.3926 121.22V114.936L55.4688 114.716V114.146H58.3047V114.716Z"></path>
<path fill="#9095A1" d="M49.0312 114.146H54.918V115.017H52.4741V121.999H51.4858V115.017H49.0312V114.146Z"></path>
<path fill="#9095A1" d="M48.4697 118.062C48.4697 118.868 48.3319 119.577 48.0562 120.189C47.7804 120.795 47.3722 121.265 46.8315 121.602C46.2944 121.939 45.6338 122.107 44.8496 122.107C44.0368 122.107 43.36 121.939 42.8193 121.602C42.2786 121.265 41.8758 120.793 41.6108 120.184C41.3494 119.575 41.2188 118.865 41.2188 118.052C41.2188 117.26 41.3512 116.559 41.6162 115.946C41.8812 115.341 42.2822 114.87 42.8193 114.534C43.36 114.194 44.0404 114.023 44.8604 114.023C45.6445 114.023 46.3052 114.19 46.8423 114.523C47.3758 114.86 47.7804 115.33 48.0562 115.936C48.3319 116.537 48.4697 117.246 48.4697 118.062ZM42.2661 118.062C42.2661 119.051 42.4738 119.83 42.8892 120.399C43.3081 120.968 43.9616 121.253 44.8496 121.253C45.7376 121.253 46.3875 120.968 46.7993 120.399C47.2147 119.83 47.4224 119.051 47.4224 118.062C47.4224 117.071 47.2165 116.295 46.8047 115.737C46.3965 115.175 45.7484 114.894 44.8604 114.894C43.9652 114.894 43.3081 115.175 42.8892 115.737C42.4738 116.295 42.2661 117.071 42.2661 118.062Z"></path>
<path fill="#9095A1" d="M35.9883 121.999H35V114.146H37.1646C38.1421 114.146 38.8636 114.333 39.3291 114.705C39.7946 115.074 40.0273 115.631 40.0273 116.375C40.0273 116.798 39.9504 117.147 39.7964 117.423C39.6424 117.702 39.4455 117.926 39.2056 118.094C38.9692 118.263 38.7186 118.391 38.4536 118.481L40.6074 121.999H39.4526L37.5513 118.755H35.9883V121.999ZM37.1108 115H35.9883V117.917H37.1646C37.8055 117.917 38.271 117.792 38.561 117.541C38.8547 117.287 39.0015 116.914 39.0015 116.424C39.0015 115.908 38.8475 115.543 38.5396 115.328C38.2316 115.11 37.7554 115 37.1108 115Z"></path>
<path fill="#FF9F1C" d="M99.2446 57.0771L99.2446 57.0771C100.434 55.0023 99.7165 52.356 97.6417 51.1664L81.8634 42.1202C79.7886 40.9307 77.1423 41.6483 75.9528 43.7231L75.9528 43.7231C74.7632 45.7979 75.4809 48.4442 77.5557 49.6337L93.334 58.6799C95.4087 59.8695 98.055 59.1519 99.2446 57.0771Z"></path>
<path fill="#FF9F1C" d="M55.4742 16.9034L55.4742 16.9034C54.2846 18.9782 55.0023 21.6245 57.0771 22.814L72.8553 31.8602C74.9301 33.0498 77.5764 32.3322 78.766 30.2574L78.766 30.2574C79.9555 28.1826 79.2379 25.5363 77.1631 24.3467L61.3848 15.3005C59.31 14.111 56.6637 14.8286 55.4742 16.9034Z"></path>
<path fill="#FB2881" d="M97.4364 15.1041L97.4364 15.1041C95.3616 13.9145 92.7154 14.6321 91.5258 16.7069L82.4796 32.4852C81.2901 34.56 82.0077 37.2063 84.0825 38.3958L84.0825 38.3958C86.1573 39.5854 88.8036 38.8678 89.9931 36.793L99.0393 21.0147C100.229 18.9399 99.5112 16.2936 97.4364 15.1041Z"></path>
<path fill="#FB2881" d="M57.2706 58.8764L57.2706 58.8764C59.3454 60.066 61.9917 59.3483 63.1812 57.2735L72.2274 41.4952C73.417 39.4204 72.6993 36.7742 70.6246 35.5846L70.6245 35.5846C68.5497 34.3951 65.9035 35.1127 64.7139 37.1875L55.6677 52.9658C54.4782 55.0406 55.1958 57.6869 57.2706 58.8764Z"></path>
<path fill="#4AA8FF" d="M69.954 69.1007L69.9541 69.1007C73.2737 71.004 77.5078 69.8558 79.411 66.5361L79.411 66.5361C81.3143 63.2164 80.1661 58.9824 76.8464 57.0791L76.8464 57.0791C73.5267 55.1758 69.2927 56.324 67.3894 59.6437L67.3894 59.6437C65.4862 62.9634 66.6344 67.1974 69.954 69.1007Z"></path>
<path fill="#4AA8FF" d="M83.7647 6.89933L83.7647 6.89931C80.445 4.99603 76.211 6.14424 74.3077 9.46391L74.3077 9.46394C72.4044 12.7836 73.5526 17.0176 76.8723 18.9209L76.8723 18.9209C80.192 20.8242 84.426 19.676 86.3293 16.3563L86.3293 16.3563C88.2326 13.0366 87.0844 8.8026 83.7647 6.89933Z"></path>
<path fill="#4AA8FF" d="M107.101 44.046L107.101 44.0459C109.004 40.7263 107.856 36.4922 104.536 34.589L104.536 34.589C101.216 32.6857 96.9824 33.8339 95.0791 37.1536L95.0791 37.1536C93.1758 40.4733 94.324 44.7073 97.6437 46.6106L97.6437 46.6106C100.963 48.5138 105.197 47.3656 107.101 44.046Z"></path>
<path fill="#4AA8FF" d="M45.7587 32.8241L45.7587 32.8242C43.8554 36.1438 45.0036 40.3779 48.3233 42.2811L48.3233 42.2812C51.643 44.1844 55.877 43.0362 57.7803 39.7166L57.7803 39.7165C59.6836 36.3969 58.5354 32.1628 55.2157 30.2596L55.2157 30.2595C51.896 28.3563 47.662 29.5045 45.7587 32.8241Z"></path>
</svg>