<svg xmlns:xlink="http://www.w3.org/1999/xlink" xmlns="http://www.w3.org/2000/svg" fill="none" viewBox="0 0 140 132" height="132" width="140">
<path fill="#BDC1CA" d="M139.367 107.48V110H131.231V107.48H133.751L132.551 104.36H125.999L124.799 107.48H127.559V110H119.543V107.48H121.799L126.671 96.0321H124.607V93.5361H134.231V96.0321H132.143L137.063 107.48H139.367ZM131.687 102.104L129.335 96.0321H129.215L126.863 102.104H131.687Z"></path>
<path fill="#BDC1CA" d="M118.906 112.376C118.122 112.6 117.386 112.712 116.698 112.712C114.842 112.712 113.202 111.84 111.778 110.096C111.106 110.24 110.41 110.312 109.69 110.312C108.026 110.312 106.522 109.944 105.178 109.208C103.85 108.456 102.802 107.432 102.034 106.136C101.282 104.84 100.906 103.384 100.906 101.768C100.906 100.152 101.282 98.6962 102.034 97.4002C102.802 96.0882 103.858 95.0642 105.202 94.3282C106.546 93.5762 108.042 93.2002 109.69 93.2002C111.322 93.2002 112.802 93.5762 114.13 94.3282C115.474 95.0642 116.522 96.0882 117.274 97.4002C118.042 98.6962 118.426 100.152 118.426 101.768C118.426 103.304 118.074 104.712 117.37 105.992C116.666 107.256 115.698 108.256 114.466 108.992C115.234 109.76 116.122 110.144 117.13 110.144C117.706 110.144 118.17 110.096 118.522 110L118.906 112.376ZM109.666 95.6962C108.21 95.6962 106.994 96.1442 106.018 97.0402C105.058 97.9202 104.458 99.0722 104.218 100.496H105.346C106.866 100.496 108.138 100.808 109.162 101.432C110.202 102.04 111.114 103.152 111.898 104.768L112.666 106.304L112.906 106.784C113.626 106.24 114.186 105.536 114.586 104.672C114.986 103.792 115.186 102.824 115.186 101.768C115.186 100.616 114.954 99.5842 114.49 98.6722C114.042 97.7442 113.402 97.0162 112.57 96.4882C111.738 95.9602 110.77 95.6962 109.666 95.6962ZM109.666 107.816C109.97 107.816 110.194 107.808 110.338 107.792L110.098 107.312L109.378 105.728C108.85 104.656 108.306 103.904 107.746 103.472C107.186 103.024 106.386 102.8 105.346 102.8H104.194C104.386 104.288 104.97 105.496 105.946 106.424C106.938 107.352 108.178 107.816 109.666 107.816Z"></path>
<path fill="#BDC1CA" d="M92.2911 100.376C94.4031 100.968 96.0191 101.68 97.1391 102.512C98.2751 103.328 98.8431 104.416 98.8431 105.776C98.8431 106.704 98.6031 107.512 98.1231 108.2C97.6431 108.872 96.9711 109.392 96.1071 109.76C95.2591 110.128 94.2991 110.312 93.2271 110.312C91.1791 110.312 89.2111 109.472 87.3231 107.792V109.976H84.5391V104.216L86.4351 104.096C87.2831 105.216 88.3151 106.112 89.5311 106.784C90.7631 107.456 91.9311 107.792 93.0351 107.792C93.7711 107.792 94.3711 107.648 94.8351 107.36C95.2991 107.056 95.5311 106.632 95.5311 106.088C95.5311 105.48 95.1311 104.944 94.3311 104.48C93.5311 104.016 92.1711 103.528 90.2511 103.016C88.2991 102.488 86.8671 101.8 85.9551 100.952C85.0591 100.088 84.6111 99.0162 84.6111 97.7362C84.6111 96.8402 84.8591 96.0482 85.3551 95.3602C85.8671 94.6722 86.5311 94.1442 87.3471 93.7762C88.1791 93.3922 89.0751 93.2002 90.0351 93.2002C92.1471 93.2002 93.8671 93.9122 95.1951 95.3362V93.5362H97.9791V99.1762L96.1791 99.2722C95.5871 98.1202 94.8111 97.2402 93.8511 96.6322C92.8911 96.0242 91.8751 95.7202 90.8031 95.7202C89.9551 95.7202 89.2591 95.8882 88.7151 96.2242C88.1871 96.5602 87.9231 97.0162 87.9231 97.5922C87.9231 98.1842 88.2511 98.6882 88.9071 99.1042C89.5791 99.5202 90.7071 99.9442 92.2911 100.376Z"></path>
<path fill="#BDC1CA" d="M73.5027 110.312C71.8387 110.312 70.3347 109.944 68.9907 109.208C67.6627 108.456 66.6147 107.432 65.8467 106.136C65.0947 104.84 64.7188 103.384 64.7188 101.768C64.7188 100.152 65.0947 98.6962 65.8467 97.4002C66.6147 96.0882 67.6707 95.0642 69.0147 94.3282C70.3587 93.5762 71.8547 93.2002 73.5027 93.2002C75.1347 93.2002 76.6147 93.5762 77.9427 94.3282C79.2867 95.0642 80.3347 96.0882 81.0867 97.4002C81.8547 98.6962 82.2387 100.152 82.2387 101.768C82.2387 103.368 81.8547 104.824 81.0867 106.136C80.3347 107.432 79.2867 108.456 77.9427 109.208C76.6147 109.944 75.1347 110.312 73.5027 110.312ZM73.5027 107.72C74.5587 107.72 75.4947 107.464 76.3107 106.952C77.1427 106.424 77.7828 105.704 78.2308 104.792C78.6788 103.88 78.9027 102.872 78.9027 101.768C78.9027 100.648 78.6788 99.6322 78.2308 98.7202C77.7828 97.8082 77.1507 97.0962 76.3347 96.5842C75.5187 96.0562 74.5747 95.7922 73.5027 95.7922C72.3987 95.7922 71.4307 96.0562 70.5987 96.5842C69.7827 97.1122 69.1507 97.8322 68.7027 98.7442C68.2547 99.6402 68.0307 100.648 68.0307 101.768C68.0307 102.904 68.2547 103.92 68.7027 104.816C69.1507 105.712 69.7827 106.424 70.5987 106.952C71.4307 107.464 72.3987 107.72 73.5027 107.72Z"></path>
<path fill="#BDC1CA" d="M60.0993 96.0561V107.48H63.0033V110H54.0273L54.0273 107.48H56.9073V96.0561H54.0273V93.5361H63.0033V96.0561H60.0993Z"></path>
<path fill="#BDC1CA" d="M52.3273 106.28C51.4793 107.528 50.4233 108.512 49.1593 109.232C47.9113 109.952 46.4553 110.312 44.7913 110.312C43.1753 110.312 41.6952 109.944 40.3512 109.208C39.0232 108.472 37.9673 107.456 37.1833 106.16C36.4153 104.864 36.0312 103.416 36.0312 101.816C36.0312 100.152 36.3993 98.6642 37.1353 97.3522C37.8713 96.0402 38.8552 95.0242 40.0872 94.3042C41.3352 93.5682 42.6793 93.2002 44.1193 93.2002C46.1833 93.2002 47.8553 93.8882 49.1353 95.2642V93.5362H51.9913V99.0802L49.9272 99.2722C49.4312 98.1842 48.7433 97.3202 47.8633 96.6802C46.9833 96.0402 45.8953 95.7202 44.5993 95.7202C43.6873 95.7202 42.8233 95.9682 42.0073 96.4642C41.2073 96.9442 40.5593 97.6482 40.0633 98.5762C39.5833 99.4882 39.3433 100.552 39.3433 101.768C39.3433 102.888 39.5833 103.904 40.0633 104.816C40.5433 105.712 41.1992 106.424 42.0312 106.952C42.8632 107.464 43.7833 107.72 44.7913 107.72C46.0393 107.72 47.0873 107.456 47.9353 106.928C48.7993 106.384 49.5753 105.608 50.2633 104.6L52.3273 106.28Z"></path>
<path fill="#BDC1CA" d="M25.1512 110.312C23.4872 110.312 21.9832 109.944 20.6392 109.208C19.3112 108.456 18.2632 107.432 17.4952 106.136C16.7432 104.84 16.3672 103.384 16.3672 101.768C16.3672 100.152 16.7432 98.6962 17.4952 97.4002C18.2632 96.0882 19.3192 95.0642 20.6632 94.3282C22.0072 93.5762 23.5032 93.2002 25.1512 93.2002C26.7832 93.2002 28.2632 93.5762 29.5912 94.3282C30.9352 95.0642 31.9832 96.0882 32.7352 97.4002C33.5032 98.6962 33.8872 100.152 33.8872 101.768C33.8872 103.368 33.5032 104.824 32.7352 106.136C31.9832 107.432 30.9352 108.456 29.5912 109.208C28.2632 109.944 26.7832 110.312 25.1512 110.312ZM25.1512 107.72C26.2072 107.72 27.1432 107.464 27.9592 106.952C28.7912 106.424 29.4312 105.704 29.8792 104.792C30.3272 103.88 30.5512 102.872 30.5512 101.768C30.5512 100.648 30.3272 99.6322 29.8792 98.7202C29.4312 97.8082 28.7992 97.0962 27.9832 96.5842C27.1672 96.0562 26.2232 95.7922 25.1512 95.7922C24.0472 95.7922 23.0792 96.0562 22.2472 96.5842C21.4312 97.1122 20.7992 97.8322 20.3512 98.7442C19.9032 99.6402 19.6792 100.648 19.6792 101.768C19.6792 102.904 19.9032 103.92 20.3512 104.816C20.7992 105.712 21.4312 106.424 22.2472 106.952C23.0792 107.464 24.0472 107.72 25.1512 107.72Z"></path>
<path fill="#BDC1CA" d="M7.752 100.376C9.864 100.968 11.48 101.68 12.6 102.512C13.736 103.328 14.304 104.416 14.304 105.776C14.304 106.704 14.064 107.512 13.584 108.2C13.104 108.872 12.432 109.392 11.568 109.76C10.72 110.128 9.76 110.312 8.688 110.312C6.64 110.312 4.672 109.472 2.784 107.792L2.784 109.976H0L0 104.216L1.896 104.096C2.744 105.216 3.776 106.112 4.992 106.784C6.224 107.456 7.392 107.792 8.496 107.792C9.232 107.792 9.832 107.648 10.296 107.36C10.76 107.056 10.992 106.632 10.992 106.088C10.992 105.48 10.592 104.944 9.792 104.48C8.992 104.016 7.632 103.528 5.712 103.016C3.76 102.488 2.328 101.8 1.416 100.952C0.52 100.088 0.072 99.0162 0.072 97.7362C0.072 96.8402 0.32 96.0482 0.816 95.3602C1.328 94.6722 1.992 94.1442 2.808 93.7762C3.64 93.3922 4.536 93.2002 5.496 93.2002C7.608 93.2002 9.328 93.9122 10.656 95.3362V93.5362H13.44L13.44 99.1762L11.64 99.2722C11.048 98.1202 10.272 97.2402 9.312 96.6322C8.352 96.0242 7.336 95.7202 6.264 95.7202C5.416 95.7202 4.72 95.8882 4.176 96.2242C3.648 96.5602 3.384 97.0162 3.384 97.5922C3.384 98.1842 3.712 98.6882 4.368 99.1042C5.04 99.5202 6.168 99.9442 7.752 100.376Z"></path>
<path fill="#9095A1" d="M120.361 131.001V124.247H118.117V123.301H123.65V124.247H121.406V131.001H120.361Z"></path>
<path fill="#9095A1" d="M115.488 131.154C114.74 131.154 114.073 130.991 113.486 130.665C112.903 130.335 112.443 129.871 112.106 129.273C111.772 128.672 111.605 127.964 111.605 127.15C111.605 126.336 111.774 125.631 112.111 125.033C112.452 124.432 112.918 123.968 113.508 123.641C114.102 123.311 114.777 123.146 115.532 123.146C115.925 123.146 116.299 123.189 116.654 123.273C117.01 123.357 117.322 123.465 117.589 123.597L117.479 124.565C117.204 124.433 116.902 124.322 116.572 124.23C116.242 124.138 115.892 124.092 115.521 124.092C114.916 124.092 114.409 124.23 113.998 124.505C113.587 124.776 113.276 125.143 113.063 125.605C112.854 126.067 112.749 126.582 112.749 127.15C112.749 127.719 112.852 128.234 113.057 128.696C113.266 129.158 113.574 129.526 113.981 129.801C114.392 130.073 114.898 130.208 115.499 130.208C115.881 130.208 116.233 130.168 116.555 130.087C116.882 130.003 117.19 129.889 117.479 129.746L117.589 130.714C117.314 130.839 117.005 130.944 116.66 131.028C116.315 131.112 115.925 131.154 115.488 131.154Z"></path>
<path fill="#9095A1" d="M106.082 131.001V123.301H110.779V124.247H107.127V126.502H110.031V127.448H107.127V130.055H110.878V131.001H106.082Z"></path>
<path fill="#9095A1" d="M98.3398 131.001V123.301H99.4728L103.268 129.065V123.301H104.324V131.001H103.433L99.3848 124.918V131.001H98.3398Z"></path>
<path fill="#9095A1" d="M90.5938 131.001V123.301H91.7268L95.5218 129.065V123.301H96.5778V131.001H95.6868L91.6388 124.918V131.001H90.5938Z"></path>
<path fill="#9095A1" d="M85.4825 131.154C84.7492 131.154 84.0965 130.991 83.5245 130.665C82.9525 130.335 82.5033 129.871 82.177 129.273C81.8507 128.672 81.6875 127.964 81.6875 127.15C81.6875 126.336 81.8507 125.631 82.177 125.033C82.5033 124.432 82.9525 123.968 83.5245 123.641C84.0965 123.311 84.7492 123.146 85.4825 123.146C86.2158 123.146 86.8685 123.311 87.4405 123.641C88.0125 123.968 88.4617 124.432 88.788 125.033C89.1143 125.631 89.2775 126.336 89.2775 127.15C89.2775 127.964 89.1143 128.672 88.788 129.273C88.4617 129.871 88.0125 130.335 87.4405 130.665C86.8685 130.991 86.2158 131.154 85.4825 131.154ZM85.4825 130.142C86.0728 130.142 86.566 130.01 86.962 129.746C87.358 129.479 87.655 129.119 87.853 128.668C88.0547 128.214 88.1555 127.708 88.1555 127.15C88.1555 126.593 88.0547 126.089 87.853 125.638C87.655 125.183 87.358 124.824 86.962 124.56C86.566 124.292 86.0728 124.158 85.4825 124.158C84.8922 124.158 84.399 124.292 84.003 124.56C83.607 124.824 83.3082 125.183 83.1065 125.638C82.9085 126.089 82.8095 126.593 82.8095 127.15C82.8095 127.708 82.9085 128.214 83.1065 128.668C83.3082 129.119 83.607 129.479 84.003 129.746C84.399 130.01 84.8922 130.142 85.4825 130.142Z"></path>
<path fill="#9095A1" d="M78.9338 131.154C78.1858 131.154 77.5184 130.991 76.9318 130.665C76.3488 130.335 75.8886 129.871 75.5513 129.273C75.2176 128.672 75.0508 127.964 75.0508 127.15C75.0508 126.336 75.2194 125.631 75.5568 125.033C75.8978 124.432 76.3634 123.968 76.9538 123.641C77.5478 123.311 78.2224 123.146 78.9778 123.146C79.3701 123.146 79.7441 123.189 80.0998 123.273C80.4554 123.357 80.7671 123.465 81.0348 123.597L80.9248 124.565C80.6498 124.433 80.3473 124.322 80.0173 124.23C79.6873 124.138 79.3371 124.092 78.9668 124.092C78.3618 124.092 77.8539 124.23 77.4433 124.505C77.0326 124.776 76.7209 125.143 76.5083 125.605C76.2993 126.067 76.1948 126.582 76.1948 127.15C76.1948 127.719 76.2974 128.234 76.5028 128.696C76.7118 129.158 77.0198 129.526 77.4268 129.801C77.8374 130.073 78.3434 130.208 78.9448 130.208C79.3261 130.208 79.6781 130.168 80.0008 130.087C80.3271 130.003 80.6351 129.889 80.9248 129.746L81.0348 130.714C80.7598 130.839 80.4499 130.944 80.1053 131.028C79.7606 131.112 79.3701 131.154 78.9338 131.154Z"></path>
<path fill="#9095A1" d="M68.2733 131.254C67.7563 131.254 67.3145 131.162 66.9478 130.979C66.5848 130.795 66.3061 130.55 66.1118 130.242C65.9175 129.934 65.8203 129.593 65.8203 129.219C65.8203 128.936 65.868 128.669 65.9633 128.416C66.0586 128.159 66.2071 127.913 66.4088 127.679C66.6141 127.44 66.88 127.206 67.2063 126.975C66.8873 126.582 66.6691 126.236 66.5518 125.935C66.4381 125.634 66.3813 125.358 66.3813 125.105C66.3813 124.72 66.4693 124.39 66.6453 124.115C66.825 123.84 67.0633 123.631 67.3603 123.488C67.6573 123.341 67.9836 123.268 68.3393 123.268C68.9663 123.268 69.4246 123.414 69.7143 123.708C70.0076 123.997 70.1543 124.357 70.1543 124.786C70.1543 125.105 70.0663 125.396 69.8903 125.66C69.7143 125.924 69.4851 126.172 69.2028 126.403C68.9205 126.634 68.618 126.861 68.2953 127.085L70.3853 129.23C70.466 129.131 70.532 128.989 70.5833 128.806C70.6383 128.623 70.6805 128.425 70.7098 128.212C70.7428 127.996 70.7666 127.792 70.7813 127.602C70.7996 127.407 70.8106 127.253 70.8143 127.14H71.7053C71.698 127.356 71.676 127.622 71.6393 127.937C71.6026 128.249 71.533 128.577 71.4303 128.922C71.3313 129.266 71.1846 129.593 70.9903 129.901L71.9473 131.001H70.9353L70.4513 130.495C70.1066 130.781 69.7675 130.979 69.4338 131.089C69.1001 131.199 68.7133 131.254 68.2733 131.254ZM68.2953 130.506C68.6913 130.506 69.0213 130.445 69.2853 130.324C69.553 130.203 69.7766 130.044 69.9563 129.846L67.6683 127.558C67.4116 127.737 67.199 127.965 67.0303 128.24C66.8616 128.515 66.7773 128.815 66.7773 129.142C66.7773 129.391 66.8305 129.62 66.9368 129.829C67.0431 130.034 67.2081 130.199 67.4318 130.324C67.6555 130.445 67.9433 130.506 68.2953 130.506ZM67.8773 126.535C68.178 126.326 68.431 126.137 68.6363 125.968C68.8416 125.796 68.9975 125.623 69.1038 125.451C69.2101 125.275 69.2633 125.075 69.2633 124.852C69.2633 124.588 69.179 124.384 69.0103 124.241C68.8416 124.098 68.6143 124.027 68.3283 124.027C68.0533 124.027 67.8076 124.118 67.5913 124.302C67.3786 124.481 67.2723 124.756 67.2723 125.127C67.2723 125.292 67.3108 125.491 67.3878 125.726C67.4685 125.961 67.6316 126.23 67.8773 126.535Z"></path>
<path fill="#9095A1" d="M59.4979 131.001V124.247H57.2539V123.301H62.7869V124.247H60.5429V131.001H59.4979Z"></path>
<path fill="#9095A1" d="M51.8789 131.001V123.301H56.5759V124.247H52.9239V126.502H55.8279V127.448H52.9239V130.055H56.6749V131.001H51.8789Z"></path>
<path fill="#9095A1" d="M44.1328 131.001V123.301H45.2658L49.0608 129.065V123.301H50.1168V131.001H49.2258L45.1778 124.918V131.001H44.1328Z"></path>
<path fill="#9095A1" d="M37.5039 131.001V123.301H40.0009C40.5362 123.301 41.0037 123.383 41.4034 123.548C41.8031 123.713 42.1129 123.968 42.3329 124.313C42.5529 124.657 42.6629 125.101 42.6629 125.644C42.6629 126.172 42.5474 126.614 42.3164 126.969C42.0891 127.325 41.7572 127.605 41.3209 127.811L43.0479 131.001H41.7719L40.2099 127.998C40.1989 127.998 40.1897 127.998 40.1824 127.998C40.1751 127.998 40.1659 127.998 40.1549 127.998H38.6039V131.001H37.5039ZM38.6039 127.063H39.9899C40.5142 127.063 40.9084 126.936 41.1724 126.683C41.4401 126.43 41.5739 126.084 41.5739 125.644C41.5739 125.196 41.4401 124.85 41.1724 124.604C40.9084 124.359 40.5142 124.236 39.9899 124.236H38.6039V127.063Z"></path>
<path fill="#9095A1" d="M31.4141 131.001L31.4141 123.301H36.1111V124.247H32.4591V126.502H35.3631V127.448H32.4591V130.055H36.2101V131.001H31.4141Z"></path>
<path fill="#9095A1" d="M27.076 131.001V124.247H24.832V123.301H30.365V124.247H28.121V131.001H27.076Z"></path>
<path fill="#9095A1" d="M17.8047 131.001L17.8047 123.301H18.9377L22.7327 129.065V123.301H23.7887V131.001H22.8977L18.8497 124.918V131.001H17.8047Z"></path>
<path fill="#9095A1" d="M15 131.001L15 123.301H16.045V131.001H15Z"></path>
<path fill="#FF5A0E" d="M70.0938 18.4281L89.5757 37.9535L97.0323 30.5162L104.47 37.9728L70.1083 3.53418L77.5456 10.9908L70.0938 18.4281Z"></path>
<path fill="#6EE8FC" d="M62.4672 65.0134L69.9189 57.5762L50.4371 38.0459L42.9805 45.4881L69.9045 72.4701L62.4672 65.0134Z"></path>
<path fill="#6A0EF0" d="M69.9714 18.4242L62.5293 10.9676L69.9859 3.53027L43.0039 30.4543L50.4412 37.9061L69.9714 18.4242Z"></path>
<path fill="#FF5AF0" d="M67.6067 5.91809L62.5859 10.9284L70.0261 18.384L77.4818 10.9439L72.4716 5.92319C71.1296 4.57838 68.9515 4.5761 67.6067 5.91809Z"></path>
<path fill="#6EE8FC" d="M42.9449 30.5234L37.9242 35.5337C36.5794 36.8757 36.5771 39.0538 37.9191 40.3986L42.9293 45.4193L50.3851 37.9792L42.9449 30.5234Z"></path>
<path fill="#FFBE0E" d="M89.5799 38.0928L70.0497 57.5795L77.4918 65.0361L70.0352 72.4734L104.474 38.112L97.0171 45.5494L89.5799 38.0928Z"></path>
<path fill="#FFBE0E" d="M97.0769 30.583L89.6211 38.0231L97.0612 45.4789L102.082 40.4686C103.427 39.1266 103.429 36.9486 102.087 35.6038L97.0769 30.583Z"></path>
<path fill="#47E89B" d="M69.9792 57.6182L62.5234 65.0583L67.5337 70.0791C68.8757 71.4238 71.0538 71.4262 72.3986 70.0841L77.4193 65.0739L69.9792 57.6182Z"></path>
</svg>