<svg xmlns:xlink="http://www.w3.org/1999/xlink" xmlns="http://www.w3.org/2000/svg" fill="none" viewBox="0 0 112 113" height="113" width="112">
<path fill="#9096A2" d="M95.9062 108.133C96.7344 108.555 97.6016 108.871 98.5078 109.082C99.4141 109.293 100.258 109.398 101.039 109.398C101.938 109.398 102.594 109.27 103.008 109.012C103.43 108.754 103.641 108.402 103.641 107.957C103.641 107.816 103.613 107.672 103.559 107.523C103.512 107.375 103.414 107.23 103.266 107.09C103.125 106.941 102.926 106.797 102.668 106.656C102.418 106.508 102.09 106.363 101.684 106.223L99.5859 105.508C98.0859 104.992 96.957 104.297 96.1992 103.422C95.4414 102.539 95.0625 101.492 95.0625 100.281C95.0625 99.5 95.2266 98.75 95.5547 98.0312C95.8828 97.3047 96.3789 96.668 97.043 96.1211C97.707 95.5664 98.543 95.125 99.5508 94.7969C100.566 94.4688 101.754 94.3047 103.113 94.3047C103.785 94.3047 104.43 94.3438 105.047 94.4219C105.664 94.5 106.242 94.6016 106.781 94.7266C107.328 94.8516 107.828 94.9961 108.281 95.1602C108.734 95.3164 109.133 95.4727 109.477 95.6289L108.211 97.9141C107.961 97.7578 107.695 97.6211 107.414 97.5039C107.141 97.3867 106.863 97.2891 106.582 97.2109C106.309 97.1328 106.039 97.0742 105.773 97.0352C105.508 96.9961 105.266 96.9766 105.047 96.9766C104.672 96.9766 104.344 97.0273 104.062 97.1289C103.781 97.2227 103.543 97.3516 103.348 97.5156C103.16 97.6719 103.016 97.8516 102.914 98.0547C102.82 98.25 102.773 98.4453 102.773 98.6406C102.773 98.8125 102.812 98.9805 102.891 99.1445C102.977 99.3008 103.117 99.457 103.312 99.6133C103.516 99.7617 103.777 99.9141 104.098 100.07C104.426 100.219 104.832 100.375 105.316 100.539L106.723 101.008C108.246 101.516 109.41 102.215 110.215 103.105C111.02 103.996 111.422 105.074 111.422 106.34C111.422 107.199 111.227 107.992 110.836 108.719C110.453 109.445 109.879 110.074 109.113 110.605C108.348 111.129 107.395 111.539 106.254 111.836C105.121 112.125 103.805 112.27 102.305 112.27C101.586 112.27 100.891 112.23 100.219 112.152C99.5547 112.082 98.9023 111.973 98.2617 111.824C97.6289 111.676 97.0039 111.488 96.3867 111.262C95.7695 111.035 95.1523 110.77 94.5352 110.465L95.9062 108.133Z"></path>
<path fill="#9096A2" d="M84.4219 94.5859H91.207L91.1953 112H84.4219V94.5859Z"></path>
<path fill="#9096A2" d="M68.3789 98.9805L66.3633 94.5859H73.5L82.0312 112.012H74.3789L73.0898 109.223H66.2227L64.9453 112.012H61.9805L68.3789 98.9805ZM71.8594 106.539L69.6562 101.758L67.4648 106.539H71.8594Z"></path>
<path fill="#9096A2" d="M41.2266 94.5859H45.4688L56.5195 103.867L56.5312 94.5859H59.1094V112H54.8672L43.8047 102.754L43.8047 112H41.2266L41.2266 94.5859Z"></path>
<path fill="#9096A2" d="M21.6328 94.5859H28.4062L28.4062 105.648C28.4062 106.273 28.4883 106.816 28.6523 107.277C28.8242 107.73 29.0586 108.109 29.3555 108.414C29.6602 108.711 30.0156 108.934 30.4219 109.082C30.8281 109.23 31.2656 109.305 31.7344 109.305C32.25 109.305 32.7109 109.23 33.1172 109.082C33.5312 108.934 33.8828 108.707 34.1719 108.402C34.4609 108.098 34.6836 107.715 34.8398 107.254C34.9961 106.793 35.0742 106.25 35.0742 105.625V94.5859H37.6523V105.227C37.6523 106.305 37.4766 107.277 37.125 108.145C36.7812 109.012 36.2891 109.754 35.6484 110.371C35.0078 110.98 34.2344 111.449 33.3281 111.777C32.4219 112.105 31.4102 112.27 30.293 112.27C28.7695 112.27 27.4609 112.109 26.3672 111.789C25.2734 111.461 24.375 110.996 23.6719 110.395C22.9687 109.785 22.4531 109.051 22.125 108.191C21.7969 107.332 21.6328 106.363 21.6328 105.285L21.6328 94.5859Z"></path>
<path fill="#9096A2" d="M0 94.5859H6.77344L6.77344 104.676L14.3086 94.5859H17.6953L12.1406 102.062L19.418 112.012H11.7891L7.89844 106.539L6.77344 108.086L6.77344 112H0L0 94.5859Z"></path>
<path fill="#FF8B00" d="M51.5667 49.6529L40.1447 52.8571L56.001 25.6215L71.8572 52.8571L60.4353 49.6529V58.7314L86.2968 66.1055C87.7858 66.5301 89.0338 64.9251 88.2553 63.5868L57.4878 10.6882C56.8245 9.54797 55.1775 9.54789 54.5142 10.6882L23.7467 63.5868C22.9682 64.9251 24.2162 66.5301 25.7051 66.1055L51.5667 58.7314V49.6529Z"></path>
</svg>