<svg xmlns:xlink="http://www.w3.org/1999/xlink" xmlns="http://www.w3.org/2000/svg" fill="none" viewBox="0 0 227 76" height="76" width="227">
<path fill="#9096A2" d="M226.603 31.1016H218.209V48.2988H214.4V31.1016L205.992 31.1016V27.293L226.603 27.293V31.1016Z"></path>
<path fill="#9096A2" d="M202.846 39.7148H190.805V35.877H202.846V39.7148ZM204.545 31.1016L189.281 31.1016V48.2988H185.473V29.2119C185.473 28.9482 185.521 28.6992 185.619 28.4648C185.717 28.2305 185.849 28.0254 186.015 27.8496C186.19 27.6738 186.396 27.5371 186.63 27.4395C186.864 27.3418 187.118 27.293 187.392 27.293L204.545 27.293V31.1016Z"></path>
<path fill="#9096A2" d="M181.705 39.8027C181.705 41.082 181.485 42.2588 181.046 43.333C180.606 44.4072 179.996 45.335 179.215 46.1162C178.434 46.8975 177.506 47.5078 176.432 47.9473C175.367 48.377 174.205 48.5918 172.945 48.5918H167.789C166.529 48.5918 165.362 48.377 164.288 47.9473C163.214 47.5078 162.286 46.8975 161.505 46.1162C160.724 45.335 160.108 44.4072 159.659 43.333C159.22 42.2588 159 41.082 159 39.8027V35.7891C159 34.5195 159.22 33.3477 159.659 32.2734C160.108 31.1895 160.724 30.2617 161.505 29.4902C162.286 28.709 163.214 28.0986 164.288 27.6592C165.362 27.2197 166.529 27 167.789 27H172.945C174.205 27 175.367 27.2197 176.432 27.6592C177.506 28.0986 178.434 28.709 179.215 29.4902C179.996 30.2617 180.606 31.1895 181.046 32.2734C181.485 33.3477 181.705 34.5195 181.705 35.7891V39.8027ZM177.896 35.7891C177.896 35.0371 177.774 34.3584 177.53 33.7529C177.296 33.1377 176.959 32.6152 176.52 32.1855C176.09 31.7461 175.567 31.4092 174.952 31.1748C174.347 30.9307 173.678 30.8086 172.945 30.8086H167.789C167.047 30.8086 166.368 30.9307 165.753 31.1748C165.147 31.4092 164.625 31.7461 164.186 32.1855C163.746 32.6152 163.404 33.1377 163.16 33.7529C162.926 34.3584 162.809 35.0371 162.809 35.7891V39.8027C162.809 40.5547 162.926 41.2383 163.16 41.8535C163.404 42.459 163.746 42.9814 164.186 43.4209C164.625 43.8506 165.147 44.1875 165.753 44.4316C166.368 44.666 167.047 44.7832 167.789 44.7832H172.916C173.658 44.7832 174.332 44.666 174.938 44.4316C175.553 44.1875 176.08 43.8506 176.52 43.4209C176.959 42.9814 177.296 42.459 177.53 41.8535C177.774 41.2383 177.896 40.5547 177.896 39.8027V35.7891Z"></path>
<path fill="#9096A2" d="M156.499 42.1172C156.499 42.8691 156.401 43.5479 156.206 44.1533C156.021 44.749 155.771 45.2764 155.459 45.7354C155.146 46.1943 154.78 46.585 154.36 46.9072C153.94 47.2295 153.506 47.4932 153.057 47.6982C152.607 47.9033 152.148 48.0547 151.68 48.1523C151.221 48.25 150.786 48.2988 150.376 48.2988H135.684V44.4902H150.376C151.108 44.4902 151.675 44.2754 152.075 43.8457C152.485 43.416 152.69 42.8398 152.69 42.1172C152.69 41.7656 152.637 41.4434 152.529 41.1504C152.422 40.8574 152.266 40.6035 152.061 40.3887C151.865 40.1738 151.621 40.0078 151.328 39.8906C151.045 39.7734 150.728 39.7148 150.376 39.7148H141.616C141.001 39.7148 140.337 39.6074 139.624 39.3926C138.911 39.168 138.247 38.8115 137.632 38.3232C137.026 37.835 136.519 37.1953 136.108 36.4043C135.708 35.6133 135.508 34.6465 135.508 33.5039C135.508 32.3613 135.708 31.3994 136.108 30.6182C136.519 29.8271 137.026 29.1875 137.632 28.6992C138.247 28.2012 138.911 27.8447 139.624 27.6299C140.337 27.4053 141.001 27.293 141.616 27.293L154.58 27.293V31.1016L141.616 31.1016C140.894 31.1016 140.327 31.3213 139.917 31.7607C139.517 32.2002 139.316 32.7812 139.316 33.5039C139.316 34.2363 139.517 34.8174 139.917 35.2471C140.327 35.667 140.894 35.877 141.616 35.877H150.376H150.405C150.815 35.8867 151.25 35.9453 151.709 36.0527C152.168 36.1504 152.622 36.3066 153.071 36.5215C153.53 36.7363 153.965 37.0098 154.375 37.3418C154.785 37.6641 155.146 38.0547 155.459 38.5137C155.781 38.9727 156.035 39.5 156.221 40.0957C156.406 40.6914 156.499 41.3652 156.499 42.1172Z"></path>
<path fill="#9096A2" d="M132.987 43.6846C132.987 44.1533 132.904 44.6562 132.738 45.1934C132.582 45.7305 132.318 46.2285 131.947 46.6875C131.586 47.1465 131.112 47.5322 130.526 47.8447C129.94 48.1475 129.223 48.2988 128.373 48.2988H113.915C113.642 48.2988 113.388 48.25 113.153 48.1523C112.919 48.0547 112.714 47.9229 112.538 47.7568C112.372 47.5811 112.24 47.376 112.143 47.1416C112.045 46.9072 111.996 46.6533 111.996 46.3799V29.2119C111.996 28.9482 112.045 28.6992 112.143 28.4648C112.24 28.2305 112.372 28.0254 112.538 27.8496C112.714 27.6738 112.919 27.5371 113.153 27.4395C113.388 27.3418 113.642 27.293 113.915 27.293L126.659 27.293C127.128 27.293 127.631 27.376 128.168 27.542C128.705 27.708 129.203 27.9766 129.662 28.3477C130.131 28.709 130.517 29.1826 130.819 29.7686C131.132 30.3545 131.288 31.0723 131.288 31.9219V32.6396C131.288 33.3135 131.176 34.041 130.951 34.8223C130.727 35.5938 130.365 36.3262 129.867 37.0195C130.297 37.2832 130.697 37.6006 131.068 37.9717C131.449 38.3428 131.781 38.7725 132.064 39.2607C132.348 39.749 132.572 40.3008 132.738 40.916C132.904 41.5313 132.987 42.21 132.987 42.9521V43.6846ZM129.179 42.9521C129.179 42.4541 129.101 42.0098 128.944 41.6191C128.788 41.2188 128.568 40.877 128.285 40.5938C128.002 40.3105 127.66 40.0957 127.26 39.9492C126.859 39.793 126.41 39.7148 125.912 39.7148H117.328V35.877H124.198C124.696 35.877 125.146 35.8037 125.546 35.6572C125.946 35.501 126.288 35.2812 126.571 34.998C126.854 34.7148 127.069 34.3779 127.216 33.9873C127.372 33.5869 127.45 33.1377 127.45 32.6396V31.9219C127.45 31.375 127.187 31.1016 126.659 31.1016L115.805 31.1016V44.4902H128.373C128.441 44.4902 128.524 44.4854 128.622 44.4756C128.72 44.4658 128.808 44.4365 128.886 44.3877C128.964 44.3389 129.032 44.2559 129.091 44.1387C129.149 44.0215 129.179 43.8604 129.179 43.6553V42.9521Z"></path>
<path fill="#9096A2" d="M108.26 39.8027C108.26 41.082 108.04 42.2588 107.601 43.333C107.161 44.4072 106.551 45.335 105.77 46.1162C104.988 46.8975 104.061 47.5078 102.986 47.9473C101.922 48.377 100.76 48.5918 99.5 48.5918H94.3438C93.084 48.5918 91.917 48.377 90.8428 47.9473C89.7686 47.5078 88.8408 46.8975 88.0596 46.1162C87.2783 45.335 86.6631 44.4072 86.2139 43.333C85.7744 42.2588 85.5547 41.082 85.5547 39.8027V35.7891C85.5547 34.5195 85.7744 33.3477 86.2139 32.2734C86.6631 31.1895 87.2783 30.2617 88.0596 29.4902C88.8408 28.709 89.7686 28.0986 90.8428 27.6592C91.917 27.2197 93.084 27 94.3438 27H99.5C100.76 27 101.922 27.2197 102.986 27.6592C104.061 28.0986 104.988 28.709 105.77 29.4902C106.551 30.2617 107.161 31.1895 107.601 32.2734C108.04 33.3477 108.26 34.5195 108.26 35.7891V39.8027ZM104.451 35.7891C104.451 35.0371 104.329 34.3584 104.085 33.7529C103.851 33.1377 103.514 32.6152 103.074 32.1855C102.645 31.7461 102.122 31.4092 101.507 31.1748C100.901 30.9307 100.232 30.8086 99.5 30.8086H94.3438C93.6016 30.8086 92.9229 30.9307 92.3076 31.1748C91.7021 31.4092 91.1797 31.7461 90.7402 32.1855C90.3008 32.6152 89.959 33.1377 89.7148 33.7529C89.4805 34.3584 89.3633 35.0371 89.3633 35.7891V39.8027C89.3633 40.5547 89.4805 41.2383 89.7148 41.8535C89.959 42.459 90.3008 42.9814 90.7402 43.4209C91.1797 43.8506 91.7021 44.1875 92.3076 44.4316C92.9229 44.666 93.6016 44.7832 94.3438 44.7832H99.4707C100.213 44.7832 100.887 44.666 101.492 44.4316C102.107 44.1875 102.635 43.8506 103.074 43.4209C103.514 42.9814 103.851 42.459 104.085 41.8535C104.329 41.2383 104.451 40.5547 104.451 39.8027V35.7891Z"></path>
<path fill="#0069EA" d="M28.7923 34.2544C27.9667 34.4694 27.1669 33.833 27.2013 32.9988L28.1043 10.9398C28.1645 9.55524 26.2295 9.12524 25.6705 10.398L8.82308 48.9518C8.41031 49.9064 9.28748 50.9126 10.3109 50.646L27.9667 46.088C28.7923 45.873 29.5921 46.5094 29.5577 47.3436L28.6547 69.394C28.5945 70.7786 30.5295 71.2086 31.0885 69.9358L47.9359 31.3906C48.3487 30.436 47.4715 29.4298 46.4481 29.6964L28.8009 34.2544H28.7923Z"></path>
<path fill="#18D5EF" d="M66.1982 24.505L48.551 29.0631C47.7254 29.2781 46.9256 28.6417 46.96 27.8074L47.863 5.74843C47.9232 4.36383 45.9882 3.93383 45.4292 5.20663L33.2344 33.1137L46.5386 29.6737C47.562 29.4071 48.4392 30.4133 48.0264 31.3679L43.3738 42.0147L47.7254 40.8881C48.551 40.6731 49.3508 41.3095 49.3164 42.1437L48.4134 64.194C48.3532 65.5786 50.2882 66.0086 50.8472 64.7358L67.6946 26.1907C68.1074 25.2361 67.2302 24.2298 66.2068 24.4964L66.1982 24.505Z"></path>
<path fill="#004696" d="M46.4908 29.6861L33.1866 33.1261L28.534 43.7729C28.1212 44.7275 28.9984 45.7337 30.0218 45.4671L43.326 42.0271L47.9786 31.3803C48.3914 30.4257 47.5142 29.4195 46.4908 29.6861Z"></path>
</svg>